<svg height="80.25" viewBox="70.126 9.468 53.874 80.25" width="53.874" xmlns="http://www.w3.org/2000/svg"><circle cx="109.059" cy="27.301" fill="#fffdd8" r="4.167"/><circle cx="115.298" cy="33.341" fill="none" r="1.823" stroke="#fffdd8"/><g fill="#fffdd8"><path d="m105.552 39.3c7.002 2.577 14.068 4.56 14.81 3.55 1.02-1.395 1.962-2.9 2.592-4.61 2.96-8.052-.567-16.876-7.947-20.573l2.822-7.675c.074-.203-.03-.427-.232-.5-.202-.075-.427.028-.5.23l-2.8 7.61c-.36-.157-.638-.272-.966-.393-.366-.136-.738-.256-1.114-.365l.712-1.934c.16-.437-.064-.924-.504-1.085-.438-.162-.925.063-1.086.502l-.784 2.132c-7.686-1.36-15.562 3.015-18.396 10.72-.63 1.71-1.244 3.466-1.042 5.182.153 1.307 7.255 4.57 14.434 7.21zm6.84-19.93c7.142 2.627 10.774 10.685 8.098 17.962-.42 1.11-.973 2.163-1.644 3.14-.638-.07-1.852-.28-4.007-.875-2.37-.653-5.348-1.627-8.386-2.745-3.187-1.172-6.276-2.438-8.698-3.566s-3.556-1.823-4.07-2.19c.066-.96.45-2.075.9-3.303 2.674-7.267 10.663-11.05 17.806-8.423z"/><circle cx="95.394" cy="64.451" r="2.604"/><path d="m104.114 40.743c-13.094-4.816-27.614 1.895-32.428 14.987-4.816 13.09 1.894 27.612 14.987 32.427 13.092 4.815 27.612-1.895 32.427-14.988 4.816-13.092-1.894-27.61-14.986-32.427zm-.492 2.593c11.313 4.41 17.14 16.955 13.207 28.445l-8.554-3.145c2.194-6.762-1.21-14.067-7.8-16.735l3.15-8.562-.004-.002zm-17.736.552c5.22-2.43 11.17-2.77 16.63-.944l-3.147 8.56c-6.685-2.052-13.833 1.322-16.497 7.787l-8.554-3.145c2.12-5.43 6.268-9.824 11.566-12.257zm.998 41.56c-11.097-4.5-16.778-16.854-12.97-28.205l8.554 3.147c-2.08 6.62 1.185 13.743 7.558 16.492l-3.15 8.562.008.003zm-1.756-24.774c2.085-5.67 8.372-8.574 14.042-6.49 5.67 2.086 8.574 8.373 6.49 14.042-2.087 5.67-8.373 8.574-14.042 6.49-5.665-2.09-8.568-8.372-6.49-14.042zm19.768 24.336c-5.313 2.478-11.384 2.783-16.917.854l3.145-8.554c6.702 2.223 13.987-1.076 16.736-7.58l8.556 3.147c-2.137 5.375-6.26 9.72-11.517 12.134h-.004z"/><circle cx="86.767" cy="47.543" r=".911"/><ellipse cx="112.892" cy="57.172" rx=".93" ry=".93"/><ellipse cx="77.669" cy="72.339" rx=".93" ry=".93"/><ellipse cx="103.781" cy="81.944" rx=".93" ry=".93"/></g></svg>