<svg height="460.326" viewBox="0 0 735.268 460.326" width="735.268" xmlns="http://www.w3.org/2000/svg" xmlns:xlink="http://www.w3.org/1999/xlink"><clipPath id="a"><path d="m0 0h919.29v460.326h-919.29z"/></clipPath><clipPath id="b"><path d="m0 0h919.29v460.326h-919.29z"/></clipPath><path clip-path="url(#a)" d="m734.25 459.326h-733.25v-455.203c0-1.725 1.398-3.123 3.123-3.123h727.004c1.725 0 3.123 1.398 3.123 3.123z" fill="#fff"/><path clip-path="url(#a)" d="m734.25 459.326h-733.25v-455.203c0-1.725 1.398-3.123 3.123-3.123h727.004c1.725 0 3.123 1.398 3.123 3.123z" fill="none" stroke="#e6e7e8" stroke-miterlimit="10" stroke-width="2"/><path clip-path="url(#a)" d="m734.25 49.812h-733.25v-45.69c0-1.722 1.398-3.122 3.123-3.122h727.004c1.725 0 3.123 1.4 3.123 3.123v45.69z" fill="#e6e7e8"/><path clip-path="url(#a)" d="m706.105 44.623h-642.8c-.2 0-.36-.162-.36-.36v-18.58c0-.2.16-.36.36-.36h642.8c.2 0 .362.16.362.36v18.58c0 .198-.162.36-.362.36" fill="#fff"/><path clip-path="url(#a)" d="m728.048 32.06h-13.275c-.18 0-.327-.148-.327-.33v-1.89c0-.182.146-.33.327-.33h13.275c.18 0 .328.148.328.33v1.89c0 .182-.147.33-.328.33m0 4.182h-13.275c-.18 0-.327-.147-.327-.328v-1.892c0-.18.146-.328.327-.328h13.275c.18 0 .328.147.328.328v1.892c0 .18-.147.328-.328.328m0 4.193h-13.275c-.18 0-.327-.147-.327-.328v-1.892c0-.18.146-.328.327-.328h13.275c.18 0 .328.147.328.328v1.892c0 .18-.147.328-.328.328m-706.542-27.47c0 2.728-2.236 4.94-4.994 4.94-2.76 0-4.995-2.212-4.995-4.94s2.236-4.94 4.995-4.94c2.758 0 4.994 2.212 4.994 4.94m15.316 0c0 2.728-2.236 4.94-4.994 4.94-2.76 0-4.995-2.212-4.995-4.94s2.236-4.94 4.995-4.94c2.758 0 4.994 2.212 4.994 4.94m15.316 0c0 2.728-2.236 4.94-4.994 4.94-2.76 0-4.995-2.212-4.995-4.94s2.235-4.94 4.994-4.94c2.758 0 4.994 2.212 4.994 4.94" fill="#bcbec0"/><path clip-path="url(#a)" d="m31.828 25.322h-22.42c-.764 0-1.384.612-1.384 1.368v16.565c0 .756.62 1.368 1.383 1.368h22.42v-19.3zm22.42 0h-20.966v19.3h20.966c.764 0 1.383-.61 1.383-1.367v-16.565c0-.756-.618-1.368-1.382-1.368" fill="#fff"/><path clip-path="url(#a)" d="m22.31 34.638h-3.487l1.692-1.673c.27-.268.27-.702 0-.97-.27-.267-.71-.267-.98 0l-2.864 2.835c-.02.018-.038.038-.055.06-.007.007-.012.015-.018.023l-.022.03-.02.03c-.004.01-.01.018-.015.027l-.015.03-.014.03-.01.032c-.005.01-.01.02-.012.032l-.008.03-.01.035c0 .01-.003.023-.004.036l-.005.03-.002.067c0 .023 0 .046.003.07l.003.008c.003.023.005.04.01.06 0 .004 0 .01.002.014.004.017.008.034.014.05 0 .005 0 .008.002.01.006.02.013.038.02.055.035.08.084.154.15.218l.008.01 2.866 2.833c.27.27.71.27.98 0 .27-.266.27-.7 0-.968l-1.694-1.674h3.49c.38 0 .692-.307.692-.685s-.31-.685-.693-.685m19.03 1.372h3.488l-1.692 1.67c-.27.268-.27.702 0 .97.27.267.71.267.98 0l2.864-2.835c.02-.018.04-.038.056-.06.007-.007.012-.015.018-.023l.022-.03.02-.03c.004-.01.01-.018.015-.027l.015-.03.014-.03c.005-.01.008-.02.012-.032.004-.01.008-.02.01-.032l.01-.03.008-.035.005-.037c0-.01.003-.018.004-.028l.003-.068c0-.023 0-.046-.003-.07l-.002-.008c-.003-.022-.005-.04-.01-.058 0 0 0-.01-.002-.015-.004-.017-.008-.034-.014-.05 0-.005-.002-.008-.003-.01-.006-.02-.013-.038-.02-.055v-.002c-.035-.08-.084-.153-.15-.217l-.008-.01-2.866-2.834c-.27-.268-.71-.268-.98 0-.27.267-.27.7 0 .97l1.693 1.673h-3.49c-.38 0-.692.306-.692.684s.312.685.694.685" fill="#bcbec0"/><path clip-path="url(#a)" d="m387.09 59.993h-346.736v390h346.736c7.637 0 13.826-6.447 13.826-14.4v-361.2c0-7.953-6.19-14.4-13.825-14.4" fill="#223a4c"/><path clip-path="url(#a)" d="m21.773 59.993c-7.636 0-13.826 6.447-13.826 14.4v361.2c0 7.953 6.19 14.4 13.826 14.4h18.58v-390h-18.58z" fill="#12212b"/><text fill="#fff" transform="translate(146.647 132.656)"/><text fill="#bcbec0" font-family="'Consolas'" font-size="11.121" transform="translate(74.934 39.176)">https://oclock.io</text><path clip-path="url(#b)" d="m710.262 445.992h-285.588c-7.953 0-14.4-6.446-14.4-14.4v-217.865c0-7.953 6.447-14.4 14.4-14.4h285.586c7.954 0 14.4 6.447 14.4 14.4v217.867c.002 7.953-6.445 14.4-14.398 14.4" fill="#fffdd8"/></svg>