<svg version="1.1" id="Calque_1" xmlns="http://www.w3.org/2000/svg" x="0" y="0" viewBox="0 0 150 150" xml:space="preserve"><style>.st1{fill:#1c88c7}</style><path d="M10.42.93V.38c.26-.01.51-.02.77-.02h129.86c.13 0 .26.02.38 0 .37-.05.42.12.39.44-.09.83-.15 1.67-.23 2.51-.5 5.51-1 11.02-1.49 16.52-.42 4.73-.83 9.45-1.25 14.18-.49 5.51-1 11.02-1.49 16.52-.46 5.13-.9 10.25-1.36 15.38-.49 5.51-1 11.02-1.49 16.52-.46 5.13-.9 10.25-1.36 15.38-.57 6.34-1.15 12.69-1.72 19.03-.51 5.73-1.03 11.45-1.52 17.18-.03.38-.16.52-.51.61-6.03 1.66-12.05 3.34-18.07 5.01-10.47 2.9-20.93 5.79-31.4 8.7-1.22.34-2.47.6-3.65 1.07h-.44c-.13-.15-.33-.15-.49-.2-2.07-.58-4.14-1.15-6.22-1.72-15.43-4.29-30.87-8.58-46.3-12.86-.32-.09-.47-.2-.5-.57-.21-2.55-.44-5.09-.67-7.64-.31-3.49-.63-6.98-.94-10.47-.31-3.45-.61-6.91-.91-10.36-.31-3.49-.63-6.98-.94-10.47-.31-3.47-.61-6.95-.92-10.42-.35-3.89-.71-7.78-1.05-11.67-.31-3.49-.61-6.98-.92-10.47-.38-4.29-.78-8.58-1.16-12.87-.31-3.49-.61-6.98-.92-10.47-.35-3.89-.71-7.78-1.05-11.67-.35-3.89-.68-7.78-1.03-11.67-.36-4.02-.71-8.04-1.08-12.05-.1-.95-.1-1.94-.32-2.9zm65.66 102.93c-.24-.07-.49-.15-.73-.21-5.7-1.54-11.4-3.08-17.11-4.61-.34-.09-.53-.21-.56-.6-.18-2.2-.37-4.4-.57-6.6-.17-1.89-.35-3.78-.51-5.67-.02-.29-.1-.41-.42-.4-5.24.01-10.48.01-15.73 0-.38 0-.39.14-.36.45.17 1.73.31 3.45.46 5.18l.81 9.22c.31 3.49.64 6.98.93 10.47.04.43.18.57.58.68 9.59 2.65 19.18 5.32 28.77 7.98 1.47.41 2.93.87 4.43 1.19l.11.03v16.44c0 .56.06.6.61.45.4-.12.81-.22 1.21-.33 3.85-1.07 7.7-2.14 11.56-3.21 3.52-.98 7.04-1.95 10.56-2.92 3.87-1.07 7.74-2.15 11.61-3.22 2.45-.68 4.9-1.37 7.36-2.04.45-.12.62-.36.62-.82.01-.62.07-1.23.12-1.85.13-1.48.28-2.96.42-4.44.09-.96.15-1.92.24-2.88l.42-4.6c.09-.96.15-1.92.24-2.88.13-1.46.28-2.92.42-4.38.09-.98.15-1.95.24-2.93l.42-4.6c.08-.92.15-1.84.24-2.77l.42-4.38c.09-.98.15-1.95.24-2.93.14-1.53.29-3.07.42-4.6.09-.96.15-1.92.24-2.88.13-1.48.28-2.96.42-4.44.09-.96.15-1.92.24-2.88l.42-4.6c.08-.92.15-1.84.24-2.77.14-1.46.29-2.92.42-4.38.09-.98.15-1.95.24-2.93l.42-4.66c.08-.9.15-1.81.24-2.71l.42-4.55c.09-.96.13-1.92.24-2.88.17-1.55.31-3.1.42-4.66.06-.9.15-1.81.23-2.71.14-1.44.29-2.89.42-4.33.09-.99.14-1.99.24-2.99.17-1.82.37-3.64.53-5.47.13-1.45.2-2.9.35-4.34.21-2.02.37-4.04.56-6.07.05-.52-.14-.51-.51-.51-17.5 0-35 .01-52.49-.01-.53 0-.63.17-.63.65.01 5.26.01 10.52.01 15.78-.04.01-.07.02-.11.04-.24-.01-.47-.02-.71-.02H35.74c-.81 0-.81 0-.75.77.02.22.02.44.04.66.43 4.78.87 9.56 1.3 14.34.04.49.14.7.72.7 12.84-.02 25.67-.02 38.51-.02.18 0 .36-.01.55-.02.03.01.07.03.1.04v16.81c-.03.01-.07.03-.1.04-.13-.01-.25-.02-.38-.02H38.42c-.07 0-.15.01-.22 0-.28-.03-.33.1-.3.36.15 1.6.29 3.2.43 4.8.32 3.54.65 7.09.94 10.63.04.54.19.68.74.68 11.85-.02 23.7-.01 35.55-.01.18 0 .36-.01.55-.02.03.01.07.03.1.04v25.41c0 .27.01.55.02.82-.07.05-.11.07-.15.09z" fill="#1b73ba"/><path class="st1" d="M76.18 27.76c0-5.26.01-10.52-.01-15.78 0-.48.1-.65.63-.65 17.5.01 35 .01 52.49.01.37 0 .55-.01.51.51-.19 2.02-.35 4.05-.56 6.07-.15 1.44-.22 2.9-.35 4.34-.16 1.82-.36 3.64-.53 5.47-.09.99-.15 1.99-.24 2.99-.13 1.44-.28 2.89-.42 4.33-.09.9-.17 1.81-.23 2.71-.11 1.56-.25 3.11-.42 4.66-.11.96-.15 1.92-.24 2.88-.13 1.52-.28 3.03-.42 4.55l-.24 2.71c-.14 1.55-.29 3.1-.42 4.66-.09.98-.15 1.95-.24 2.93-.13 1.46-.28 2.92-.42 4.38-.09.92-.16 1.84-.24 2.77-.14 1.53-.29 3.07-.42 4.6-.09.96-.15 1.92-.24 2.88-.13 1.48-.28 2.96-.42 4.44-.09.96-.15 1.92-.24 2.88-.14 1.53-.29 3.07-.42 4.6-.09.98-.15 1.95-.24 2.93-.13 1.46-.28 2.92-.42 4.38-.09.92-.16 1.84-.24 2.77-.14 1.53-.29 3.07-.42 4.6-.09.98-.15 1.95-.24 2.93-.13 1.46-.28 2.92-.42 4.38-.09.96-.15 1.92-.24 2.88-.14 1.53-.29 3.07-.42 4.6-.09.96-.15 1.92-.24 2.88-.13 1.48-.28 2.96-.42 4.44-.06.61-.12 1.23-.12 1.85 0 .46-.17.7-.62.82-2.45.67-4.9 1.36-7.36 2.04-3.87 1.07-7.74 2.15-11.61 3.22-3.52.98-7.04 1.95-10.56 2.92l-11.56 3.21-1.21.33c-.54.16-.6.11-.61-.45v-16.44c.12-.04.24-.09.36-.13 10.64-2.95 21.28-5.9 31.93-8.85 1.39-.38 1.36-.38 1.47-1.8.25-3.06.53-6.11.8-9.16.28-3.14.56-6.29.85-9.43.27-3 .53-6 .8-9l.84-9.38c.23-2.62.46-5.24.7-7.85.28-3.07.56-6.14.83-9.21l.81-9.11c.31-3.53.63-7.05.95-10.58l.72-8.02c.06-.66.08-.66-.57-.66H76.8c-.18-.03-.4-.04-.62-.05z"/><path d="M116.67 27.78H76.84c-.22 0-.44-.01-.66-.02-.04.01-.07.02-.11.04-.24-.01-.47-.02-.71-.02H35.7c-.81 0-.81 0-.75.77.02.22.02.44.04.66.43 4.78.87 9.56 1.3 14.34.04.49.14.7.72.7 12.84-.02 39.12-.01 39.16.01.18-.01.36-.02.55-.02 7.3 0 14.6 0 21.9-.01.52 0 .63.14.59.64-.3 3.14-.57 6.28-.85 9.43-.19 2.13-.39 4.25-.56 6.38-.03.3-.07.44-.43.44-7.01-.01-14.02-.01-21.03-.01-.05 0-.11-.01-.16-.02-.03.01-.07.03-.1.04-.13-.01-.25-.02-.38-.02H38.39c-.07 0-.15.01-.22 0-.28-.03-.33.1-.3.36.15 1.6.29 3.2.43 4.8.32 3.54.65 7.09.94 10.63.04.54.19.68.74.68 11.85-.02 23.7-.01 35.55-.01.18 0 .62.01.65.02.58-.01 1.17-.02 1.75-.02 5.95 0 11.9 0 17.85-.01.46 0 .56.08.51.57-.3 3.05-.55 6.1-.83 9.16-.31 3.49-.62 6.98-.95 10.46-.11 1.19-.14 1.19-1.21 1.48l-16.67 4.5c-.14.04-.28.06-.43.1-.04.02-.09.04-.13.06-.24-.07-.49-.15-.73-.21-5.7-1.54-11.4-3.08-17.11-4.61-.34-.09-.53-.21-.56-.6-.18-2.2-.37-4.4-.57-6.6-.17-1.89-.35-3.78-.51-5.67-.02-.29-.1-.41-.42-.4-5.24.01-10.48.01-15.73 0-.38 0-.39.14-.36.45.17 1.73.31 3.45.46 5.18l.81 9.22c.31 3.49.64 6.98.93 10.47.04.43.18.57.58.68 9.59 2.65 19.18 5.32 28.77 7.98 1.47.41 2.93.87 4.43 1.19l.11.03c.12-.04.24-.09.36-.13 10.64-2.95 21.28-5.9 31.93-8.85 1.39-.38 1.36-.38 1.47-1.8.25-3.06.53-6.11.8-9.16.28-3.14.56-6.29.85-9.43.27-3 .53-6 .8-9l.84-9.38c.23-2.62.46-5.24.7-7.85.28-3.07.56-6.14.83-9.21l.81-9.11c.31-3.53.63-7.05.95-10.58l.72-8.02c.07-.7.09-.7-.56-.7z" fill="#fefefe"/><path class="st1" d="M76.18 77.56c.58-.01 1.17-.02 1.75-.02 5.95 0 11.9 0 17.85-.01.46 0 .56.08.51.57-.3 3.05-.55 6.1-.83 9.16-.31 3.49-.62 6.98-.95 10.46-.11 1.19-.14 1.19-1.21 1.48l-16.67 4.5c-.14.04-.28.06-.43.1-.01-.27-.02-.55-.02-.82V77.56zm0-33.31c.18-.01.36-.02.55-.02 7.3 0 14.6 0 21.9-.01.52 0 .63.14.59.64-.3 3.14-.57 6.28-.85 9.43-.19 2.13-.39 4.25-.56 6.38-.03.3-.07.44-.43.44-7.01-.01-14.02-.01-21.03-.01-.05 0-.11-.01-.16-.02-.01-5.62-.01-11.22-.01-16.83z"/></svg>