<svg xmlns="http://www.w3.org/2000/svg" width="512" height="512" viewBox="0 0 512 512"><g fill="#FFFDD8"><path d="M338.025 131.236c-7.447 0-14.293 2.633-19.655 7.014-4.198-12.226-15.804-21.04-29.437-21.04-7.34 0-14.088 2.56-19.414 6.825-3.985-12.074-15.78-20.85-29.68-20.85-6.69 0-12.89 2.04-17.97 5.498V36.12C221.87 18.96 207.91 5 190.75 5s-31.12 13.96-31.12 31.12v262.99c0 .434.043.864.128 1.29l18.785 93.922c1.918 9.596 10.415 16.56 20.2 16.56h25.336l4.732 89.5s.073 3.95 4.583 3.293c3.07-.45 3.323-2.854 3.323-2.854l-4.074-89.99 58.633.055-2.098 88.96s-.368 3.44 2.698 3.614c4.715.266 4.547-2.736 4.547-2.736l3.637-89.455 34.457-.385c11.357 0 20.6-9.24 20.6-20.6V251.46c8.442-5.57 14.026-15.136 14.026-25.986v-63.118c0-17.16-13.958-31.12-31.12-31.12zm-49.09-.877c9.91 0 17.972 8.06 17.972 17.97v70.13c0 9.91-8.062 17.97-17.97 17.97-9.91 0-17.973-8.06-17.973-17.97v-70.13c0-9.91 8.06-17.97 17.972-17.97zm-49.092-14.027c9.91 0 17.972 7.482 17.972 16.68v79.727c0 8.386-6.708 15.327-15.402 16.49-2.315-9.24-8.817-17.313-18.274-21.23-.75-.31-1.508-.58-2.267-.827v-74.16c0-9.198 8.06-16.68 17.97-16.68zM190.75 18.15c9.91 0 17.972 8.06 17.972 17.97v169.72c-10.87 1.252-20.77 8.197-25.245 19.002l-10.697 25.82V36.12c0-9.91 8.062-17.97 17.97-17.97zM341.974 390.28c0 4.107-3.344 7.45-7.453 7.45H198.744c-3.54 0-6.613-2.52-7.307-5.99L172.78 298.46v-8.65c.007-1.026.275-5.446 1.472-8.335 3.68-8.892 21.373-51.6 21.373-51.6 2.935-7.08 9.9-11.275 17.14-11.067.78.325 1.635.507 2.533.507.308 0 .61-.03.907-.07.975.22 1.946.508 2.9.903 9.154 3.792 13.518 14.326 9.726 23.48l-19.607 47.34c-.33.798-.5 1.65-.5 2.515v37.188c0 3.632 2.943 6.576 6.575 6.576 3.63 0 6.574-2.944 6.574-6.575v-35.88l19.108-46.128c.85-2.048 1.457-4.137 1.846-6.233 7.407-.68 14.064-3.855 19.042-8.638 5.354 9.42 15.478 15.79 27.065 15.79 8.524 0 16.258-3.45 21.885-9.02 5.317 9.553 15.52 16.033 27.207 16.033 1.336 0 2.65-.095 3.945-.258v133.945h.003zm14.025-164.807c0 9.91-8.062 17.97-17.973 17.97-9.91 0-17.97-8.06-17.97-17.97V162.358c0-9.91 8.06-17.97 17.97-17.97 9.91 0 17.973 8.06 17.973 17.97v63.118z"/><path d="M187.245 88.28h7.013c3.632 0 6.574-2.942 6.574-6.574s-2.942-6.575-6.574-6.575h-7.013c-3.632 0-6.575 2.944-6.575 6.576s2.943 6.575 6.575 6.575zM187.245 151.398h7.013c3.632 0 6.574-2.943 6.574-6.575s-2.942-6.574-6.574-6.574h-7.013c-3.632 0-6.575 2.94-6.575 6.573 0 3.632 2.943 6.575 6.575 6.575zM236.336 200.49h7.013c3.63 0 6.574-2.943 6.574-6.575s-2.943-6.575-6.575-6.575h-7.014c-3.63 0-6.574 2.943-6.574 6.575s2.943 6.575 6.574 6.575zM285.428 207.503h7.014c3.633 0 6.574-2.943 6.574-6.575s-2.94-6.575-6.574-6.575h-7.014c-3.63 0-6.574 2.943-6.574 6.575s2.943 6.575 6.574 6.575zM341.532 208.38h-7.013c-3.634 0-6.575 2.943-6.575 6.575 0 3.63 2.94 6.575 6.574 6.575h7.012c3.632 0 6.575-2.944 6.575-6.575 0-3.632-2.943-6.575-6.575-6.575zM327.507 362.668h-7.45V292.1c0-3.633-2.943-6.574-6.576-6.574-3.63 0-6.573 2.94-6.573 6.574v7.45h-7.45c-3.632 0-6.575 2.943-6.575 6.575s2.943 6.574 6.574 6.574h7.45v49.968h-7.45c-3.63 0-6.574 2.942-6.574 6.574 0 3.633 2.943 6.575 6.574 6.575h28.053c3.63 0 6.574-2.942 6.574-6.575-.002-3.632-2.945-6.574-6.577-6.574zM285.427 333.738c3.632 0 6.574-2.942 6.574-6.574s-2.94-6.574-6.573-6.574h-7.452v-7.45c0-3.634-2.94-6.575-6.572-6.575-3.633 0-6.575 2.94-6.575 6.574v7.45h-7.89v-7.45c0-3.634-2.942-6.575-6.576-6.575-3.63 0-6.575 2.94-6.575 6.574v7.45h-7.45c-3.633 0-6.576 2.942-6.576 6.574s2.944 6.574 6.576 6.574h7.45v7.89h-7.45c-3.632 0-6.575 2.943-6.575 6.575 0 3.633 2.944 6.575 6.576 6.575h7.45v7.45c0 3.633 2.944 6.575 6.576 6.575 3.632 0 6.576-2.942 6.576-6.575v-7.45h7.89v7.45c0 3.633 2.942 6.575 6.575 6.575 3.63 0 6.572-2.942 6.572-6.575v-7.45h7.452c3.632 0 6.574-2.942 6.574-6.575 0-3.632-2.94-6.574-6.573-6.574h-7.452v-7.892h7.452zm-20.6 7.89h-7.892v-7.89h7.89v7.89z"/></g></svg>