<svg enable-background="new 0 0 503.635 241.986" height="241.986" viewBox="0 0 503.635 241.986" width="503.635" xmlns="http://www.w3.org/2000/svg"><path d="m336.977 109.77h42.741c0-10.66-.066-21.095.025-31.529.054-6.263 3.699-10.516 9.23-11.14 6.651-.751 11.771 3.471 11.938 10.318.22 8.994.283 18.003-.007 26.992-.139 4.259.963 5.535 5.467 5.805 6.274.376 9.572-1.918 13.129-7.077 13.125-19.038 26.65-37.83 40.785-56.128 5.421-7.017 12.762-12.594 19.485-18.535 2.181-1.927 5.062-3.243 7.829-4.29 8.698-3.29 16.226 1.669 16.03 10.977-.602 28.788-3.117 57.236-16.905 83.401-.688 1.304-.58 3.624.118 4.974 13.651 26.389 16.56 54.904 16.556 83.932-.003 8.855-7.455 13.801-15.57 10.174-5.514-2.467-10.769-6.064-15.28-10.113-16.244-14.574-28.734-32.324-41.036-50.17-4.817-6.99-9.533-14.07-13.872-21.363-2.114-3.555-4.391-5.443-8.666-4.793-2.406.367-4.915.066-7.979.066 0 9.229.002 18.016 0 26.801-.001 2 .055 4.002-.029 5.998-.268 6.391-4.732 10.988-10.59 10.969-5.878-.02-10.536-4.65-10.617-10.988-.136-10.656-.037-21.314-.037-32.377h-42.745c0 1.795-.001 3.715 0 5.635.008 18.83.044 37.662-.013 56.492-.008 2.467-.074 5.074-.852 7.365-1.61 4.734-6.638 7.25-11.693 6.352-5.259-.938-8.669-5.137-8.69-11.158-.062-18.332-.017-36.664-.014-54.994.001-3.145 0-6.287 0-9.762h-42.715v5.303c-.002 27.33.021 54.662-.021 81.992-.011 6.979-3.101 11.262-8.582 12.281-6.998 1.305-12.664-3.836-12.678-11.717-.043-27.33-.013-54.66-.011-81.99 0-1.818 0-3.639 0-5.832h-42.73v6.158c-.002 30.662.031 61.326-.027 91.988-.017 9.078-7.204 14.52-14.754 11.236-4.871-2.119-6.528-6.174-6.516-11.326.066-30.662.033-61.326.033-91.988 0-1.967 0-3.932 0-6.162h-42.738v6.018c0 27.83-.347 55.666.174 83.486.204 10.875-8.341 15.363-17.742 11.959-48.991-17.742-87.556-49.293-119.63-89.51-9.595-12.029-10.591-31.217-1.436-43.009 32.193-41.467 71.276-74.023 121.59-91.501 11.027-3.83 17.245 1.213 17.153 12.779-.227 28.661-.058 57.325-.033 85.988.001.477.199.954.394 1.835h42.252c0-1.788 0-3.554 0-5.319.006-30.663 0-61.326.026-91.99.006-6.601 3.063-10.957 8.275-12.016 7.372-1.498 12.932 3.425 12.954 11.743.064 24.33.025 48.661.025 72.991.001 8.119.001 16.237.001 24.675h42.736c0-2.215 0-4.175 0-6.134-.002-26.997-.027-53.994.008-80.991.014-9.139 7.836-14.711 15.324-10.938 4.538 2.287 5.988 6.226 5.97 11.172-.092 25.997-.04 51.994-.036 77.991 0 2.166-.275 4.388.133 6.476.203 1.039 1.655 2.61 2.56 2.622 13.129.17 26.262.116 40.044.116 0-2.191 0-3.957 0-5.723 0-19.498.026-38.996-.017-58.494-.011-4.774 1.784-8.455 6.127-10.56 3.948-1.914 8.311-1.807 11.101 1.418 2.172 2.509 3.812 6.373 3.873 9.669.357 19.158.176 38.326.177 57.49-.002 1.803-.002 3.605-.002 5.98m-213.551 98.664v-174.898c-2.698 1.11-5.017 1.955-7.244 2.997-37.186 17.382-67.057 43.693-92.176 75.745-5.018 6.402-4.788 11.244.562 18.08 15.697 20.055 33.598 37.873 54.208 52.896 13.75 10.024 28.34 18.555 44.65 25.18m358.327-154.805c-1.214.757-1.699.928-1.999 1.264-17.479 19.606-31.369 41.755-45.11 63.995-.663 1.074-.545 3.396.19 4.456 14.192 20.514 28.548 40.914 42.801 61.387.92 1.32 1.28 3.035 1.9 4.564.711-.66 1.421-1.318 2.132-1.977-2.166-21.25-5.015-42.279-18.069-60.348-2.811-3.891-2.778-8.207.044-12.129 13.015-18.077 15.89-39.104 18.111-61.212" fill="#fffdd8"/></svg>