<svg xmlns="http://www.w3.org/2000/svg" width="512" height="512" viewBox="0 0 512 512"><path fill="#FFFDD8" stroke="#FFFDD8" stroke-width="2" stroke-miterlimit="10" d="M305.42 117.434h-78.28c-53.954 0-97.845 43.894-97.845 97.846v27.454c-13.94 2.598-26.37 8.84-36.214 18.262-27.347 26.233-26.797 67.55-14.128 96.856 15.902 36.824 51.648 69.905 96.07 89.22v29.13c0 17.985 14.63 32.617 32.615 32.617h117.29c17.98 0 32.613-14.633 32.613-32.617V415.5c28.3-17.854 45.727-49.236 45.727-82.805V215.28c-.002-53.953-43.89-97.846-97.848-97.846zM142.34 215.28c0-46.76 38.044-84.8 84.8-84.8h78.28c14.094 0 27.368 3.507 39.077 9.618l.06 92.73c0 29.89-24.314 54.207-54.204 54.207h-77.61c-.818-3.38-1.996-6.694-3.533-9.88-5.784-11.99-16.48-22.013-30.08-28.205-11.557-5.335-24.15-7.882-36.788-7.554V215.28zm202.154 260.922c0 10.792-8.78 19.57-19.57 19.57h-117.29c-10.79 0-19.567-8.778-19.567-19.57v-33.46-20.322c12.237 5.335 25.557 8.12 39.075 8.12h78.278c13.485 0 26.806-2.788 39.075-8.134v53.796zm45.725-143.507c0 30.154-16.225 58.273-42.362 73.413-.064.038-.134.076-.197.117-12.804 7.375-27.404 11.27-42.24 11.27h-78.277c-14.926 0-29.563-3.914-42.324-11.316-2.014-1.17-4.505-1.177-6.53-.014-2.02 1.166-3.268 3.32-3.268 5.654v20.976c-39.02-18.257-70.09-47.685-84.094-80.12-10.528-24.354-11.523-60.48 11.18-82.26 9.098-8.706 21.003-14.097 34.457-15.584 12.447-1.446 25.653.682 37.13 5.98 10.862 4.945 19.304 12.763 23.762 22.008 4.516 9.364 4.842 20.216.886 29.774-3.943 9.552-12.294 17.656-22.347 21.675-3.344 1.337-4.975 5.134-3.636 8.478 1.336 3.35 5.16 4.96 8.478 3.638 13.455-5.38 24.233-15.885 29.564-28.813 2.32-5.604 3.49-11.538 3.653-17.49h76.3c37.08 0 67.25-30.172 67.25-67.258l-.056-84.288c19.844 15.535 32.67 39.645 32.67 66.744v117.415z"/><path fill="none" stroke="#FFFDD8" stroke-width="13" stroke-miterlimit="10" d="M370.878 15.615L344.356 64.98M261.816 14.155V62.14M158.418 16.915L178.5 63.98"/></svg>