<svg xmlns="http://www.w3.org/2000/svg" viewBox="0 0 59.882 59.882" width="512" height="512"><g fill="#fffdd8"><path d="M52.045 26.18l-.352-.082.246-.263c.92-.988.867-2.542-.12-3.466l-.802-.75c-.48-.445-1.104-.685-1.757-.656-.654.022-1.26.298-1.708.776l-2.44 2.614c-1.468-2.093-3.42-4.004-6.087-5.634.96-.17 1.74-.377 2.41-.76h5.505c2.206 0 4-1.793 4-4s-1.794-4-4-4h-6c-.72-.342-1.582-.514-2.762-.527-.207-.002-.394-.14-.463-.346-.162-.47-.347-.932-.554-1.377l.922-.92c1.56-1.56 1.56-4.098 0-5.657-1.51-1.51-4.145-1.513-5.657 0l-1.08 1.08c-2.012-.594-4.13-.276-6.028.914-.16.103-.398.04-.53-.134-.48-.643-1.063-1.363-1.875-1.776-1.18-.598-2.93-.04-3.8.55-.792.54-.808 1.71-.588 3.298.08.58.27 1.172.452 1.746.114.36.282.89.35 1.24l.005.227c.003.066 0 .103.003.112-.022.03-.057.06-.086.09-.032.034-.06.068-.1.1-.038.03-.087.06-.132.09-.05.03-.093.064-.15.095-.05.03-.112.055-.17.082-.06.03-.116.058-.18.085-.07.028-.143.052-.216.078-.064.022-.124.047-.19.067-.086.026-.177.048-.266.07-.06.016-.116.034-.176.047-.104.023-.21.04-.315.057-.048.01-.096.02-.145.027-.118.016-.238.025-.358.033-.033.002-.067.008-.1.01-.15.006-.3.005-.443-.005-.23-.014-.45-.022-.662-.02l-4.742-4.742c-.928-.926-2.545-.924-3.468 0l-.777.776c-.956.955-.956 2.51 0 3.466l4.828 4.827c-.006.103-.01.207-.014.316-.073 3.127-.148 6.362-1.19 9.1-.19.503-.37 1.02-.542 1.55-.146.444-.275.884-.4 1.323-.013.05-.03.095-.043.145l-.087.312c-.038.142-.084.286-.12.428l-.252.904.055-.013c-1.79 8.14.227 15.417 6.06 21.675 6.58 7.06 15.168 10.52 26.168 10.52 1.27 0 2.574-.047 3.91-.14 3.627-.25 5.833-2.582 5.9-6.237.05-2.648-.127-5.515-.524-8.517-.158-1.196-.293-2.404-.428-3.614-.37-3.326-.754-6.693-1.63-9.894l2.335.543c.186.044.374.065.56.065.453 0 .897-.127 1.29-.37.557-.348.944-.89 1.093-1.527l.25-1.068c.307-1.317-.514-2.638-1.83-2.945zM39.94 11.962h3.557c-.344.59-.556 1.268-.556 2s.213 1.41.557 2H39.94c-1.102 0-2-.897-2-2s.898-2 2-2zm9 2c0 1.103-.896 2-2 2s-2-.897-2-2 .898-2 2-2 2 .897 2 2zM8.074 7.382c-.054-.054-.083-.112-.103-.166-.018-.05-.03-.1-.03-.153 0-.053.012-.105.03-.155.02-.053.05-.11.103-.164l.777-.777c.114-.114.248-.132.318-.132s.204.018.32.133l5.368 5.37.45-.03c.265-.018.556-.018.876.004.17.01.352.012.545.006.115-.004.24-.016.36-.026.083-.007.162-.01.248-.02.125-.016.252-.038.38-.06.09-.015.18-.028.272-.047.12-.024.24-.056.36-.087.103-.026.205-.05.306-.082.112-.034.22-.073.33-.112.11-.04.217-.08.323-.124.1-.042.197-.088.294-.135.11-.053.214-.11.316-.17.087-.05.17-.104.252-.16.1-.068.193-.14.284-.217.073-.06.143-.12.21-.187.03-.03.066-.054.095-.085 1.68 1.364 3.095 3.335 2.236 5.83-.973 2.83-6.15 7.304-11.216 9.178.122-.353.237-.704.373-1.062 1.164-3.06 1.247-6.62 1.32-9.766.006-.234.025-.44.045-.65l.043-.467-5.485-5.485zm39.92 34.214c.135 1.224.27 2.445.432 3.655.385 2.905.556 5.67.508 8.22-.048 2.582-1.482 4.103-4.04 4.278-12.264.848-21.57-2.343-28.476-9.748-5.66-6.07-7.424-12.922-5.354-20.862 5.725-1.62 12.445-6.847 13.823-10.85 1.082-3.145-.202-6.178-3.606-8.59-.083-.488-.24-.994-.398-1.494-.157-.493-.32-1.004-.377-1.413-.12-.878-.11-1.292-.09-1.476.574-.31 1.365-.426 1.59-.313.43.22.835.73 1.183 1.194.752 1 2.153 1.28 3.192.628 1.568-.982 3.25-1.167 4.867-.53l.61.24 1.982-1.984c.778-.78 2.05-.78 2.828 0s.78 2.05 0 2.828l-1.952 1.952.348.653c.294.554.55 1.145.76 1.755.217.64.677 1.147 1.253 1.437-.087.09-.156.193-.234.29-.076.094-.16.182-.23.283-.08.12-.138.25-.204.378-.053.1-.115.193-.16.297-.063.153-.103.316-.148.478-.025.09-.063.174-.08.266-.054.258-.082.525-.082.798 0 .297.038.585.1.864.02.09.055.175.082.263.054.183.113.364.192.535.045.097.1.186.15.28.086.15.175.296.277.434.067.088.138.17.21.253.112.126.23.244.355.355.047.04.083.093.132.132-.426.253-.73.678-.822 1.192-.137.747.202 1.476.863 1.855 2.686 1.548 4.623 3.384 6.05 5.43l.26.403c.028.042.053.086.08.128.84 1.306 1.52 2.73 2.074 4.348l.18.525.005.002c1.05 3.314 1.453 6.93 1.865 10.634zm3.936-12.926l-.25 1.068c-.037.16-.143.244-.2.28-.06.038-.183.093-.342.058l-3.49-.813c0-.005-.003-.01-.004-.013-.395-1.08-.858-2.134-1.422-3.15l2.795-2.994c.11-.12.244-.14.313-.144.07.005.206.01.324.122l.802.747c.182.17.19.458.02.64l-2.604 2.792 3.72.865c.24.058.393.3.337.543z"/><path d="M43.386 44.13l-2.503 1.67c-1.7-.898-3.228-1.844-4.584-2.838h3.64c.553 0 1-.447 1-1s-.447-1-1-1h-6c-.022 0-.04.01-.062.012-2.598-2.42-4.278-5.082-5.016-7.964-.38-1.482-.467-2.902-.388-4.212.012-.008.027-.01.04-.017 1.756-1.227 3.806-1.223 6.098.006.81.434 1.63 1.02 2.44 1.72-.07.14-.11.294-.11.454v4c0 .553.446 1 1 1s1-.447 1-1V32.4c.577.658 1.14 1.367 1.674 2.132.194.278.505.428.82.428.198 0 .397-.06.572-.18.453-.316.563-.94.248-1.393-.697-.998-1.442-1.918-2.215-2.754l2.5-1.874c.442-.332.532-.96.2-1.4-.33-.443-.96-.53-1.4-.2l-2.74 2.055c-1-.898-2.026-1.647-3.044-2.193-2.386-1.28-4.682-1.485-6.735-.654.653-2.89 1.926-4.813 1.947-4.845.31-.456.192-1.078-.264-1.39-.454-.31-1.076-.194-1.388.26-.16.236-3.82 5.71-2.296 12.608-.157.04-.307.1-.434.215-4.425 3.97-4.586 11.064-.43 15.982l-.016 2.756c-.003.553.442 1.003.994 1.006h.006c.55 0 .997-.445 1-.995l.01-2.006h1.99c.553 0 1-.448 1-1s-.447-1-1-1h-2.4c-3.403-3.973-3.444-9.623-.135-12.94 1.033 2.83 2.88 5.436 5.535 7.802v5.137c0 .552.447 1 1 1s1-.448 1-1v-3.514c1.478 1.1 3.144 2.14 5 3.12v2.394c0 .553.447 1 1 1s1-.447 1-1v-2.465l2.555-1.703c.46-.307.584-.927.277-1.387-.305-.458-.925-.58-1.386-.275z"/></g></svg>