<svg version="1.1" id="Calque_1" xmlns="http://www.w3.org/2000/svg" x="0" y="0" viewBox="0 0 142.55 142.29" xml:space="preserve"><style>.st0{fill:#e34d26}.st1{fill:#f0652a}.st2{fill:#fefefe}</style><path class="st0" d="M74.53 139.57c-2.46-.84-4.99-1.44-7.49-2.14-13.61-3.79-27.23-7.55-40.86-11.31-.49-.14-.7-.31-.75-.86-.73-8.42-1.51-16.83-2.26-25.24-.58-6.54-1.14-13.08-1.72-19.62-.64-7.15-1.3-14.29-1.93-21.43-.53-5.9-1.03-11.81-1.56-17.71-.58-6.51-1.18-13.02-1.76-19.53-.47-5.3-.93-10.6-1.39-15.89-.07-.83-.12-1.66-.24-2.48-.07-.46.01-.7.52-.63.16.02.33 0 .5 0 39.52 0 79.05 0 118.57-.02.8 0 1.05.09.96 1.01-.74 7.78-1.39 15.56-2.08 23.34-.8 9.02-1.63 18.04-2.44 27.06-.75 8.41-1.48 16.83-2.22 25.25-.77 8.72-1.55 17.44-2.33 26.15-.59 6.54-1.2 13.07-1.75 19.61-.06.65-.33.82-.85.96-7.01 1.93-14.02 3.88-21.03 5.82-9.01 2.49-18.02 4.99-27.02 7.49-.13.04-.24.11-.36.17h-.51zm.34-41.92c-.19-.03-.38-.03-.57-.08-5.18-1.38-10.36-2.78-15.55-4.13-.68-.18-.83-.48-.88-1.13-.28-3.53-.62-7.06-.93-10.59-.03-.4-.14-.58-.58-.58-4.68.01-9.36.01-14.04 0-.43 0-.6.12-.55.57.09.77.14 1.54.21 2.32.6 6.67 1.21 13.34 1.79 20.01.05.58.22.85.82 1.02 10.1 2.79 20.19 5.61 30.28 8.42 0 4.93.01 9.86-.02 14.8-.01.76.26.79.86.63 5.25-1.49 10.51-2.96 15.76-4.44 4.99-1.4 9.98-2.79 14.98-4.18 2.52-.7 5.05-1.4 7.57-2.11.33-.09.73-.12.77-.61.1-1.12.23-2.24.33-3.37.13-1.51.23-3.02.37-4.53.2-2.14.43-4.27.63-6.4.14-1.51.23-3.02.36-4.53.21-2.36.43-4.71.64-7.07.12-1.37.23-2.74.36-4.11.21-2.19.44-4.38.64-6.57.14-1.51.22-3.02.36-4.53.21-2.36.43-4.71.64-7.07.12-1.37.23-2.74.36-4.11.21-2.3.43-4.6.64-6.9.13-1.43.23-2.85.36-4.28.21-2.25.43-4.49.63-6.73.13-1.45.23-2.91.36-4.36.21-2.33.43-4.66.64-6.98.13-1.4.23-2.8.36-4.2.21-2.25.43-4.49.63-6.73.13-1.48.24-2.96.37-4.44.2-2.3.4-4.6.64-6.9.08-.77-.24-.91-.94-.91-15.79.02-31.59.02-47.38 0-.73 0-.93.19-.93.93.03 4.71.02 9.46.02 14.17-.39.01-.77 0-1.16 0h-35.9c-.47 0-.91-.12-.83.68.73 7.6 1.42 15.21 2.11 22.82.64 7.06 1.27 14.11 1.87 21.17.07.79.34.96 1.1.96 10.58-.03 21.16-.02 31.74-.02.36 0 .72.03 1.08.05-.02 8.01-.02 16.02-.02 24.04z"/><path class="st1" d="M74.87 27.89c0-4.71.01-9.42-.02-14.13-.01-.74.2-.93.93-.93 15.79.02 31.59.02 47.38 0 .7 0 1.02.14.94.91-.24 2.3-.44 4.6-.64 6.9-.13 1.48-.24 2.96-.37 4.44-.2 2.25-.43 4.49-.63 6.73-.13 1.4-.24 2.8-.36 4.2-.21 2.33-.43 4.66-.64 6.98-.13 1.45-.23 2.91-.36 4.36-.2 2.25-.43 4.49-.63 6.73-.13 1.43-.24 2.85-.36 4.28-.21 2.3-.43 4.6-.64 6.9-.12 1.37-.23 2.74-.36 4.11-.21 2.36-.44 4.71-.64 7.07-.13 1.51-.22 3.02-.36 4.53-.2 2.19-.43 4.38-.64 6.57-.13 1.37-.24 2.74-.36 4.11-.21 2.36-.44 4.71-.64 7.07-.13 1.51-.22 3.02-.36 4.53-.2 2.14-.43 4.27-.63 6.4-.14 1.51-.23 3.02-.37 4.53-.1 1.12-.23 2.24-.33 3.37-.04.5-.44.52-.77.61-2.52.71-5.04 1.41-7.57 2.11-4.99 1.39-9.99 2.79-14.98 4.18-5.26 1.47-10.51 2.95-15.76 4.44-.59.17-.86.13-.86-.63.04-4.93.02-9.86.02-14.8.01-.03.01-.06.01-.09 9.75-2.7 19.5-5.39 29.26-8.09 1.53-.42 1.57-.43 1.72-2.01.5-5.29.97-10.59 1.44-15.88l1.23-13.81c.42-4.69.85-9.37 1.26-14.06.09-1.06.06-1.07-1.03-1.07H75.67c-.28 0-.53-.01-.81 0 .01-.03 0-.02 0-.05 0-5.11-.01-10.22-.01-15.33 0-.04.01-.08.02-.12.05.01.11.02.16.02 11.86 0 23.73 0 35.59.02.49 0 .65-.14.69-.64.4-4.52.83-9.05 1.28-13.56.07-.69-.09-.88-.81-.88-12.08.02-24.17.02-36.25.02-.22 0-.45-.02-.67 0l.01-.04z"/><path class="st2" d="M74.87 42.97c-.01.04-.01.08-.02.12-.33-.02-.66-.06-.99-.06H58.81c-1.52 0-3.05.02-4.57-.01-.55-.01-.75.15-.67.71.09.63.12 1.27.18 1.9.37 4.03.75 8.05 1.08 12.08.06.68.33.78.92.77 6.1-.02 12.19-.01 18.29-.01.28 0 .82.01.81.04 0 5.01 0 10.02.01 15.03l.01.07c-.36-.02-.72-.05-1.08-.05-10.58 0-21.16-.01-31.74.02-.77 0-1.04-.18-1.1-.96-.6-7.06-1.23-14.12-1.87-21.17-.69-7.61-1.38-15.21-2.11-22.82-.08-.81.36-.68.83-.68h35.9c.39 0 .77.01 1.16 0l.01.04v14.98zm.01 70.42c0 .03-.01.06-.01.09-10.09-2.81-20.18-5.63-30.28-8.42-.6-.17-.77-.44-.82-1.02-.58-6.67-1.19-13.34-1.79-20.01-.07-.77-.12-1.55-.21-2.32-.05-.45.11-.57.55-.57 4.68.01 9.36.01 14.04 0 .45 0 .55.17.58.58.3 3.53.65 7.06.93 10.59.05.65.21.95.88 1.13 5.19 1.35 10.37 2.75 15.55 4.13.18.05.38.05.57.08"/><path class="st1" d="M74.86 97.72c.04-7.96.08-15.68.11-23.64l-.11-.54c.3.01.61.04.91.04 5.54 0 11.08.02 16.62-.02.77 0 1.07.11.97.98-.23 1.92-.35 3.86-.53 5.79-.37 4.08-.76 8.16-1.1 12.24-.05.55-.28.73-.77.86-5.38 1.4-10.74 2.85-16.1 4.29z"/><path class="st2" d="M74.86 97.72c5.36-1.44 10.73-2.88 16.1-4.31.49-.13.72-.31.77-.86.35-4.08.73-8.16 1.1-12.24.17-1.93.3-3.86.53-5.79.11-.87-.2-.98-.97-.98-5.54.03-11.08.02-16.62.02-.3 0-.61-.02-.91-.04 0-5.01 0-10.02-.01-15.03.28-.01.55-.04.83-.04h33.08c1.09 0 1.12.01 1.03 1.07-.41 4.69-.84 9.37-1.26 14.06l-1.23 13.81c-.47 5.29-.94 10.59-1.44 15.88-.15 1.58-.19 1.58-1.72 2.01-9.75 2.7-19.5 5.4-29.26 8.09-.01-5.2-.02-10.43-.02-15.65zm.01-54.75v-15c.22-.01.44-.03.66-.03 12.08 0 24.17.01 36.25-.02.72 0 .88.19.81.88-.45 4.52-.88 9.04-1.28 13.56-.05.51-.2.64-.69.64-11.86 0-23.72 0-35.59-.01-.05 0-.1-.01-.16-.02z"/><path class="st0" d="M74.87 58.47h-.83c-6.1 0-12.19-.01-18.29.01-.59 0-.86-.09-.92-.77-.33-4.03-.72-8.05-1.08-12.08-.06-.63-.09-1.27-.18-1.9-.08-.56.13-.72.67-.71 1.52.03 3.05.01 4.57.01h15.05c.33 0 .66.04.99.06.01 5.11.02 15.38.02 15.38z"/></svg>