<svg xmlns="http://www.w3.org/2000/svg" viewBox="0 0 142.55 142.29"><path d="M71.33 142.21c-23.76.02-47.52.04-71.28.07C.02 94.76-.02 47.24-.07-.28 47.45-.31 94.97-.35 142.49-.4c.03 47.52.07 95.04.12 142.56-23.76.01-47.52.03-71.28.05z" fill="#f7df1e"/><path d="M110.06 131.02c-5.18.05-9.94-.75-14.39-2.97-4.6-2.3-8.1-5.74-10.54-10.26-.18-.33-.17-.48.18-.68 3.36-1.93 6.71-3.88 10.04-5.84.37-.22.51-.15.72.18 1.46 2.32 3.2 4.38 5.59 5.8 2.66 1.59 5.57 2.06 8.62 1.83 1.35-.1 2.65-.41 3.89-.96 4.98-2.18 5.08-8.11 1.23-10.85-1.9-1.35-4.01-2.28-6.13-3.22-3.12-1.39-6.32-2.6-9.31-4.27-2.89-1.62-5.53-3.54-7.55-6.21-1.96-2.59-3.01-5.54-3.37-8.74-.39-3.42-.12-6.76 1.3-9.94 2.09-4.71 5.7-7.8 10.55-9.34 5.93-1.88 11.86-1.75 17.62.73 3.97 1.71 6.71 4.79 8.87 8.46.15.25.11.36-.12.51-3.28 2.1-6.55 4.21-9.82 6.33-.33.21-.4.01-.52-.2-.79-1.36-1.68-2.65-2.95-3.61-2.52-1.91-5.34-2.28-8.25-1.23-4.55 1.64-4.56 7.56-1.47 10.02 1.57 1.24 3.34 2.1 5.15 2.9 3.45 1.53 6.97 2.9 10.28 4.71 2.46 1.34 4.78 2.87 6.78 4.86 3.05 3.04 4.6 6.75 4.97 11 .29 3.28.02 6.48-1.24 9.55-1.82 4.43-5.11 7.39-9.43 9.28-3.51 1.51-7.18 2.09-10.7 2.16zM77.61 89.41c.01 7.48.04 14.96.01 22.44-.02 3.44-.67 6.76-2.23 9.86-2.17 4.29-5.65 7.02-10.24 8.29-5.91 1.64-11.79 1.51-17.47-.98-4.56-2-7.74-5.45-9.94-9.86-.13-.26-.12-.39.15-.56 3.42-2.06 6.83-4.13 10.24-6.21.33-.2.43-.05.57.2.63 1.14 1.32 2.25 2.1 3.29 2.52 3.34 6.17 3.83 9.74 2.63 2.04-.68 2.95-2.4 3.39-4.39.29-1.28.34-2.59.34-3.89-.01-14.8-.02-29.61-.05-44.41 0-.62.17-.73.75-.72 4.02.02 8.04.02 12.05-.01.5 0 .61.13.61.62-.01 7.9 0 15.79.01 23.69-.01.01-.02.01-.03.01z"/></svg>