<svg xmlns="http://www.w3.org/2000/svg" viewBox="0 0 3630 2176.84"><rect fill="#CECDCD" x="375" y="69.42" width="2883" height="1989" rx="106" ry="106"/><path fill="#DBD9D9" d="M3152 79.42H481a96 96 0 0 0-96 96v1767a116 116 0 0 0 116 116h2631a116 116 0 0 0 116-116v-1767a96 96 0 0 0-96-96z"/><path fill="#E6E6E6" d="M3152 79.42H481a96 96 0 0 0-96 96v1737a46 46 0 0 0 46 46h2771a46 46 0 0 0 46-46v-1737a96 96 0 0 0-96-96z"/><path fill="#fffdd8" d="M473 193.42h2686v1682H473z"/><path fill="#CCC" d="M3575 2064.42H57c38.49 37.34 140 43 140 43h3238s101.5-5.66 140-43z"/><path fill="#E6E6E6" d="M3579.07 2004.35a9.64 9.64 0 0 0-7.07-2.93H60a10 10 0 0 0-10 10v43a10 10 0 0 0 10 10h3512a10 10 0 0 0 10-10v-43a9.64 9.64 0 0 0-2.93-7.07z"/><path fill="#BDBDBD" d="M1577.08 2001.42c4.59 21 13.4 34 35.92 34h406c22.52 0 31.34-13 35.92-34h-477.84z"/><circle fill="#C13530" cx="1816.5" cy="135.92" r="12"/></svg>