<svg id="Calque_1" xmlns="http://www.w3.org/2000/svg" viewBox="0 0 500.27 500.27"><style>.st0{fill:#7478ae}.st1{fill:#121316}</style><ellipse class="st0" cx="250.02" cy="249.96" rx="245.04" ry="128.16"/><path class="st1" d="M132.2 192.3c9.5.07 18.99 0 28.53.2 8.21.17 16.16 1.76 23.49 5.54 9.8 5.07 15.55 13.25 17.17 24.06 2.5 16.59-.71 32.07-10.24 45.97-8.92 13.01-21.26 21.23-36.77 24.44-4.02.84-8.11.98-12.23.91-10.17-.14-20.31-.14-30.49-.24-.64 0-.78.3-.84.81-1.35 6.93-2.7 13.89-4.06 20.82-.84 4.22-1.69 8.48-2.47 12.74-.17.84-.51 1.01-1.28.98-9.94-.07-19.87-.14-29.78-.17-.91 0-1.15-.17-.95-1.12 2.37-11.42 4.66-22.85 7-34.24 3.21-15.72 6.39-31.43 9.56-47.15 3.48-17.1 6.96-34.2 10.44-51.31.51-2.43.51-2.43 3.04-2.43 9.97.05 19.94.12 29.88.19zm6.72 25.31c-3.72-.03-7.47 0-11.19-.1-1.01-.03-1.25.34-1.39 1.22-1.28 7.64-2.6 15.28-3.92 22.92-1.45 8.42-2.91 16.83-4.36 25.25-.14.84-.03 1.12.91 1.12 5.2-.03 10.41-.03 15.61.07 4.19.1 8.28-.51 12.34-1.55 8.58-2.2 14.6-7.37 17.95-15.58 2.33-5.75 3.41-11.76 3.65-17.91.2-5.17-1.96-9.33-6.49-12.13-3.89-2.4-8.25-3.11-12.67-3.28-3.48-.1-6.96-.03-10.44-.03zm216.55 76.89c-5.95-.03-11.93-.03-17.88-.14-.81 0-1.05.27-1.22.98-2.16 11.09-4.33 22.17-6.49 33.26-.17.81-.37 1.12-1.28 1.12-9.94-.1-19.87-.14-29.78-.2-1.15 0-1.15 0-.91-1.15 4.5-22.14 8.99-44.28 13.49-66.38 4.6-22.54 9.16-45.09 13.72-67.66.17-.84.51-1.08 1.35-1.05 20.11.14 40.25.1 60.36.41 8.55.14 16.83 1.99 24.4 6.29 8.28 4.73 13.28 11.86 15.38 21.09 1.52 6.69 1.49 13.45.68 20.21-1.08 8.65-3.68 16.8-8.15 24.3-7.54 12.64-18.25 21.46-32.21 26.23-6.29 2.16-12.78 2.94-19.43 2.74-4.02-.05-8.01.02-12.03-.05 0 .03 0 .03 0 0zm9.09-75.67c-3.35-.03-6.69-.03-10.04-.07-2.4 0-2.4 0-2.81 2.4-2.7 15.65-5.37 31.3-8.11 46.95-.14.84 0 1.15.95 1.15 5.17 0 10.34-.03 15.55.1 4.19.1 8.28-.51 12.34-1.52 8.62-2.2 14.67-7.37 18.05-15.65 2.33-5.75 3.41-11.76 3.62-17.91.2-5.68-2.4-9.94-7.44-12.64-3.68-1.96-7.67-2.57-11.76-2.7-3.46-.15-6.91-.08-10.35-.11zm-81.42 75.3c-5.2-.03-10.41-.07-15.61-.1-1.15 0-1.18 0-.95-1.18 2.13-10.85 4.22-21.73 6.35-32.58 1.83-9.43 3.72-18.83 5.48-28.26.47-2.57 1.12-5.14.74-7.77-.37-2.84-2.03-4.6-4.9-5.31a22.71 22.71 0 0 0-5.07-.64c-8.35-.07-16.7-.1-25.08-.17-.74 0-1.01.2-1.15.91-4.26 20.75-8.52 41.5-12.78 62.22-.81 3.92-1.62 7.81-2.4 11.73-.14.61-.37.81-.98.78-10.11-.07-20.18-.14-30.28-.17-.71 0-.88-.2-.74-.91 2.77-13.62 5.54-27.27 8.31-40.9 3.48-17.1 6.96-34.2 10.41-51.31 2.84-14.03 5.71-28.02 8.52-42.04.17-.84.51-1.08 1.35-1.08 9.94.07 19.87.14 29.78.17.81 0 1.12.07.91 1.05-2.2 11.09-4.36 22.17-6.56 33.22-.17.88.03 1.05.88 1.05 9.09.03 18.15 0 27.24.17 8.18.14 16.12 1.52 23.42 5.44 5.98 3.18 10.27 7.84 12 14.57 1.01 3.92.84 7.84.17 11.8-3.51 20.04-7.06 40.12-10.61 60.16-.47 2.74-.98 5.48-1.42 8.21-.1.74-.41.95-1.12.95-5.27.02-10.57.02-15.91-.01z"/></svg>