<svg version="1.1" id="Calque_1" xmlns="http://www.w3.org/2000/svg" x="0" y="0" viewBox="0 0 150 150" xml:space="preserve"><style>.st1{fill:#fff}</style><circle cx="74.79" cy="75" r="73.18" fill="#62d9fa"/><path class="st1" d="M109.01 42.3c.04 4.64-.6 8.86-1.52 13.04-.15.69.05.87.64 1.06 4.68 1.49 9.21 3.31 13.38 5.94 3.13 1.97 5.99 4.24 7.91 7.49 2.12 3.59 2 7.17-.19 10.68-1.99 3.2-4.88 5.43-8.03 7.37-4.01 2.47-8.32 4.26-12.81 5.66-.69.22-.91.42-.74 1.21 1.1 4.89 1.74 9.85 1.49 14.87-.19 3.85-.8 7.62-3.02 10.91-2.37 3.52-5.77 4.75-9.88 4.28-5.36-.62-9.85-3.23-14.18-6.2-2.34-1.61-4.52-3.43-6.61-5.35-.51-.47-.77-.38-1.23.04-3.88 3.56-8.03 6.74-12.76 9.1-2.87 1.43-5.87 2.5-9.1 2.6-3.84.12-6.91-1.41-8.98-4.73-1.69-2.7-2.36-5.71-2.67-8.82-.56-5.68.15-11.26 1.35-16.79.15-.69-.07-.88-.65-1.07-4.09-1.29-8.06-2.86-11.79-5-3.25-1.86-6.27-4.01-8.56-7.03-3.32-4.38-3.2-9.27.3-13.54 2.4-2.93 5.43-5.06 8.7-6.87 3.57-1.98 7.32-3.53 11.23-4.69.75-.22.79-.62.65-1.25-1.04-4.68-1.69-9.42-1.52-14.23.13-3.57.63-7.08 2.33-10.31 2.44-4.64 6.39-6.07 11.05-5.45 5.21.69 9.61 3.29 13.84 6.22 2.31 1.61 4.46 3.41 6.54 5.31.48.44.72.38 1.15-.03 4.23-3.9 8.78-7.34 14.06-9.73 2.35-1.07 4.8-1.86 7.39-1.99 5.03-.26 8.69 2.22 10.58 7.07 1.16 2.96 1.66 6.17 1.65 10.23zM74.93 93.27c3.16.1 6.39-.15 9.62-.33.48-.03.7-.28.94-.63 3.66-5.33 6.83-10.94 9.62-16.76.18-.37.21-.66.03-1.05-2.78-5.9-6.07-11.49-9.75-16.87-.24-.34-.49-.5-.91-.52-1.6-.08-3.2-.24-4.8-.28-4.9-.12-9.79-.09-14.68.3-.37.03-.64.16-.86.49-3.69 5.4-6.93 11.06-9.74 16.97-.14.3-.19.57-.03.91 2.84 5.92 6.1 11.6 9.84 17 .2.29.42.43.78.45 3.29.18 6.57.41 9.94.32zm50.93-18.28c-.06-.52-.13-1.05-.33-1.55-.88-2.16-2.52-3.7-4.31-5.08-4.4-3.36-9.43-5.42-14.64-7.12-.61-.2-.61.19-.71.53-1.29 4.34-2.85 8.57-4.68 12.71-.14.32-.16.58-.02.9 1.85 4.16 3.45 8.4 4.75 12.77.17.57.37.7.96.51 3.75-1.22 7.39-2.67 10.81-4.66 2.41-1.4 4.7-2.98 6.49-5.18.9-1.11 1.58-2.33 1.68-3.83zm-80.2 32.42c-.02 1.45-.01 2.89.2 4.32.26 1.8.63 3.58 1.47 5.22 1.19 2.32 2.74 3.11 5.37 2.93 1.63-.11 3.2-.6 4.71-1.23 5.06-2.12 9.3-5.45 13.34-9.07.41-.37.26-.57-.04-.89-3.01-3.23-5.88-6.59-8.45-10.18-.47-.65-1.01-.85-1.73-.92-1.04-.09-2.07-.24-3.1-.39-3.25-.47-6.48-1.03-9.67-1.83-.47-.12-.69.05-.78.52-.74 3.81-1.4 7.62-1.32 11.52zm51.76-77.32c-.37.03-.75.06-1.11.11-2.44.34-4.67 1.28-6.83 2.43-3.92 2.09-7.37 4.83-10.65 7.8-.31.28-.41.47-.07.83 3.19 3.32 6.1 6.89 8.83 10.59.18.24.34.42.69.46 4.57.51 9.09 1.26 13.57 2.31.52.12.64-.04.74-.5.97-4.72 1.61-9.48 1.27-14.32-.17-2.33-.57-4.61-1.61-6.73-1.01-2.01-2.58-3.03-4.83-2.98zM23.69 75.02c.08 1.01.41 1.92.94 2.78 1.09 1.73 2.59 3.05 4.22 4.24 4.24 3.09 9.02 5.07 13.97 6.68.48.16.69.06.84-.47 1.22-4.18 2.73-8.27 4.49-12.26.28-.65.31-1.18.03-1.82-1.8-4.06-3.36-8.2-4.59-12.47-.14-.48-.34-.55-.79-.4-2.49.83-4.95 1.72-7.32 2.84-3.45 1.63-6.76 3.48-9.43 6.27-1.23 1.29-2.22 2.73-2.36 4.61zm28.43-44.78c-2.6-.01-3.86.78-5 3.13-.43.89-.74 1.83-.95 2.8-.65 3.03-.75 6.08-.52 9.17.22 2.96.68 5.88 1.29 8.78.1.45.23.68.73.55 4.46-1.12 8.99-1.81 13.56-2.35.29-.03.49-.13.66-.37 2.7-3.73 5.6-7.29 8.79-10.62.34-.36.32-.61-.06-.92-.66-.54-1.28-1.13-1.94-1.68-3.14-2.64-6.45-5.05-10.19-6.78-2.02-.94-4.1-1.69-6.37-1.71zm51.91 76.89c-.02-3.59-.58-7.39-1.37-11.16-.12-.58-.35-.74-.92-.6-4.34 1.03-8.72 1.82-13.17 2.25-.5.05-.81.3-1.1.69a100.24 100.24 0 01-8.54 10.31c-.36.38-.4.62.02.97 1.09.9 2.14 1.86 3.24 2.75 3.42 2.73 7.02 5.17 11.19 6.64 1.14.4 2.31.69 3.51.79 3.04.25 4.75-.87 5.85-3.77 1.04-2.78 1.28-5.67 1.29-8.87zM81.06 51.79a88.58 88.58 0 00-6.07-7.05c-.32-.34-.52-.08-.71.14-1.23 1.38-2.46 2.74-3.66 4.14-.73.85-1.41 1.75-2.19 2.73 4.28-.17 8.36-.18 12.63.04zM68.47 98.21c1.97 2.57 3.99 4.81 6.03 7.03.37.4.55.06.76-.16 1.5-1.53 2.89-3.16 4.24-4.81.51-.62 1.09-1.21 1.52-2.06-4.2.29-8.28.23-12.55 0zm29.56-17.09c-1.91 3.8-3.96 7.3-6.18 10.86.34 0 .5.02.65 0 2.77-.43 5.51-.97 8.24-1.6.52-.12.36-.41.26-.72-.52-1.6-1.01-3.21-1.56-4.79-.41-1.22-.89-2.4-1.41-3.75zM57.77 57.93c-3.08.46-5.98 1.02-8.87 1.67-.54.12-.51.37-.38.8.75 2.46 1.57 4.88 2.51 7.27.13.33.16.73.55 1.01 1.89-3.66 3.92-7.2 6.19-10.75zm-6.25 23.29c-1.19 3.01-2.16 5.83-3.01 8.69-.13.43.13.42.4.48 2.01.41 4.01.87 6.03 1.23.85.15 1.7.4 2.77.34-2.22-3.52-4.3-6.95-6.19-10.74zm40.26-23.28c1.12 1.85 2.21 3.56 3.22 5.31 1.02 1.76 1.98 3.57 3.04 5.47 1.15-2.9 2.11-5.73 2.96-8.59.15-.5-.2-.48-.45-.53-2.85-.65-5.72-1.23-8.77-1.66z"/><path class="st1" d="M74.75 84.19c-5.14 0-9.2-4.06-9.19-9.2 0-5.09 4.14-9.23 9.21-9.22 5.09.01 9.21 4.18 9.2 9.32-.01 5.05-4.11 9.1-9.22 9.1z"/></svg>