<svg height="91" viewBox="0 0 67 91" width="67" xmlns="http://www.w3.org/2000/svg"><path d="m52.845 89.152h-51.135s1.183-11.838 13.44-30.794 12.892-25.008 12.892-25.008.25-1.247-.312-1.247-.904-.03-.904-.03l-5.28.056-1.262-.068c-7.038-.746-13.364-7.577-13.364-13.996v-16.217c7.92.177 14.31 6.322 14.512 13.95h.477v-13.95c8.255 0 14.96 6.42 14.96 15.14h.563v-15.14c8.403.177 15.187 6.322 15.402 13.95v16.332c.042.722.53.872.896.9h9.034l-9.752 8.603 9.752 8.602-9.338.003c-.984 0-.084 1.146-.084 1.146s8.984 10.232 9.733 11.17c.733.917 2.157 2.245 2.214 5.555 0 4.934-4 8.935-9.04 8.934-.324.036-.69.024-1.098-.054-1.89-.36-2.254.295-2.31.682-.022.146 0 .254 0 .254v11.227h.003zm-10.483-57.422c-2.447 0-4.43 1.982-4.43 4.43 0 2.446 1.982 4.43 4.43 4.43s4.43-1.984 4.43-4.43c0-2.448-1.982-4.43-4.43-4.43z" fill="none" stroke="#fffdd8" stroke-linejoin="round" stroke-miterlimit="10" stroke-width="3"/></svg>