<svg height="97" viewBox="0 0 108 97" width="108" xmlns="http://www.w3.org/2000/svg"><g style="fill:none;stroke:#fffdd8;stroke-width:4;stroke-linecap:round;stroke-linejoin:round;stroke-miterlimit:10"><path d="m63.498 18.22c1.68 1.85 3.235 2.965 5.547.546 2.52-2.64 4.927-.624 6.912 1.003 2.622 2.146.19 3.793-.976 5.44-1.097 1.548-2.134 3.214-3.525 4.463-2.258 2.025-4.484 3.682-8.02 1.655-4.008-2.297-7.688-4.833-10.963-8.08-2.988-2.964-2.676-6.19-.395-8.96 3.383-4.11 7.458-7.568 11.89-10.608 2.988-2.05 5.72-1.762 8.525.05 9.847 6.36 15.45 15.84 19.516 26.484 3.22 8.424 6.842 16.687 9.056 25.484.794 3.158 2.063 6.2 1.898 9.516-.074 1.488.33 2.754 1.027 4.002 3.036 5.447 1.613 10.485-4.02 12.438-11.402 3.95-22.49 8.89-34.47 11.082-7.94 1.453-22.65-1.062-31.003-5.527-1.597.23-2.35 1.642-3.51 2.483-10.501 7.599-13.107 6.549-22.877-2.591-6.56-6.136-7.403-22.23-2.61-29.888 1.173-1.875 2.9-2.383 5.002-2.527 8.676-.596 12.363.592 20.117 7.044 9.632-8.343 21.63-7.484 33.372-6.873 6.634.345 11.19 5.207 15.505 9.858"/><path d="m71.497 30.72c.43 1.478 1.555 2.44 1.162 4.53-1.27 6.75-1.83 13.634-2.663 20.467m-12.496 5.999c-3-.333-5.996-.737-9.002-.978-2.232-.178-4.086 1.045-5.997 1.978"/></g></svg>