<svg xmlns="http://www.w3.org/2000/svg" viewBox="0 0 1000 1000"><circle cx="499.84" cy="499.84" r="499.84"/><path d="M510.44 395.58c8.1-19.19 15.18-37.76 23.64-55.68 21.96-46.53 49.36-89.4 91.13-120.77 42.15-31.66 88.93-44.76 140.7-27.54 23.37 7.78 40.38 22.84 42.55 49.45 2.53 30.92-20.79 52.85-50.36 47.82-24.2-4.12-36.62-28.15-25.97-50.37 1.84-3.85 4.13-7.49 6.03-11.31 6.23-12.5 2.03-20.43-12.04-22.09-23.07-2.71-42.86 4.53-59.4 20.65-15.13 14.73-24.63 33.03-32.16 52.41-16.34 42.08-23.76 86.38-32.05 130.45-1.43 7.62-2.67 15.28-4.26 24.39 32.24 3.4 63.08 4.13 91.26-13.8 7.78-4.95 9.54-12.04 5.43-20.39-1.25-2.55-2.66-5.03-4.04-7.52-8.06-14.53-8.03-23.7 1.05-34.34 9.28-10.87 21.2-15.59 35.39-12.17 11.46 2.77 21.32 16.31 22.76 29.7 1.84 17.21-4.41 31.45-15.96 43.65-23.11 24.4-52.88 34.29-85.19 37-17.64 1.48-35.5.26-54.75.26-3.64 19.94-7.34 40.09-11 60.24-11.23 61.75-24.39 123.05-51.9 180-27.22 56.33-63.04 106.04-117.38 139.5-32.95 20.29-68.61 31.27-107.96 24.37-30.94-5.43-52.42-24.77-57.42-51.43-4.15-22.12 7-44.31 27.77-55.28 19.07-10.07 40.09-7.66 54.41 6.22 18.68 18.12 16.72 42.51-3.78 58.33-4.32 3.33-8.99 10.65-8.19 15.2 1.47 8.32 10.13 8.88 17.5 7.82 21.09-3.03 37.75-14.24 51.96-29.42 24.25-25.9 38.91-57.38 47.27-91.05 13.54-54.5 24.39-109.66 36.62-164.49 9.45-42.35 19.07-84.66 29.12-126.88 1.51-6.36 1.19-10.11-4.16-14.52-13.47-11.08-26.15-23.12-39.31-34.58-19.19-16.71-41.08-27.94-66.32-32.38-33.31-5.85-62.5 17.44-60.61 48.66.77 12.67 7.18 22.61 15.16 32.18 18.66 22.39 38.81 43.94 54.48 68.32 22.34 34.77 16.7 76.63-10.55 107.88-18.79 21.55-42.83 34.21-70.6 39.02-41.84 7.24-80.99-1.22-116.07-24.96-26.11-17.68-41.69-42.14-37.66-75.08 2.93-23.92 18.06-35.91 39.77-33.73 21.17 2.13 36.59 20.38 33.86 42.73-1.24 10.2-5.98 20.28-10.66 29.65-4.27 8.57-6.23 16.27 1.42 23.2 22.51 20.41 61.84 25.72 86.7-1.18 16.63-17.99 16.45-41.28.04-59.99-10.33-11.78-21.55-22.77-31.96-34.48-24.27-27.32-40.53-58.16-35.71-95.93 5.92-46.44 41.19-82.13 90.34-92.22 48.64-9.98 90.67 5.18 127.86 36.14 12.03 10.02 23.27 20.98 34.92 31.45 2.52 2.35 5.26 4.42 8.28 6.89z" fill="#fff"/></svg>