<svg xmlns="http://www.w3.org/2000/svg" width="512" height="512" viewBox="0 0 512 512"><path fill="#FFFDD8" d="M496.484 388.783h-16.55V268.025c0-4.143-3.356-7.5-7.5-7.5-4.14 0-7.5 3.357-7.5 7.5v135.758h31.55c.285 0 .517.23.517.516v16.03c0 4.706-3.827 8.533-8.53 8.533H23.53c-4.705 0-8.532-3.828-8.532-8.532V404.3c0-.286.23-.517.516-.517h31.55V115.72c0-9.126 7.422-16.55 16.547-16.55H280.05c4.142 0 7.5-3.357 7.5-7.5s-3.358-7.5-7.5-7.5H63.612c-17.396 0-31.548 14.153-31.548 31.55v273.063h-16.55C6.96 388.783 0 395.743 0 404.298v16.032c0 12.976 10.557 23.532 23.532 23.532h464.936c12.977 0 23.532-10.558 23.532-23.532v-16.032c0-8.555-6.96-15.515-15.516-15.515z"/><path fill="#FFFDD8" d="M440.37 260.295c-4.142 0-7.5 3.36-7.5 7.5v120.923H287.55V362.04c0-16.44-9.9-30.915-25.225-36.875l-33.465-13.013c-3.304-1.285-5.44-4.407-5.44-7.953v-16.697c9.826-8.724 16.033-21.435 16.033-35.575v-16.032c0-26.236-21.344-47.58-47.58-47.58-26.236 0-47.58 21.344-47.58 47.58v16.032c0 14.14 6.206 26.853 16.03 35.575V304.2c0 3.545-2.134 6.666-5.44 7.95l-33.463 13.015c-15.324 5.96-25.225 20.433-25.225 36.875v26.68H79.13V131.234h200.92c4.144 0 7.5-3.358 7.5-7.5s-3.356-7.5-7.5-7.5H71.63c-4.143 0-7.5 3.358-7.5 7.5V396.22c0 4.142 3.357 7.5 7.5 7.5h368.74c4.143 0 7.5-3.358 7.5-7.5V267.796c0-4.143-3.357-7.502-7.5-7.502zm-281.08-8.367v-16.032c0-17.965 14.617-32.58 32.582-32.58s32.58 14.615 32.58 32.58v16.032c0 17.964-14.615 32.58-32.58 32.58s-32.58-14.615-32.58-32.58zm54.6 67.38l-22.02 18.925-22.02-18.924c3.465-4.132 5.47-9.42 5.47-15.11v-7.664c5.16 1.92 10.734 2.973 16.55 2.973s11.392-1.055 16.55-2.974v7.664c0 5.693 2.005 10.978 5.47 15.11zm58.657 69.41h-17.064v-16.547c0-4.14-3.358-7.5-7.5-7.5s-7.5 3.36-7.5 7.5v16.55h-97.226v-16.55c0-4.14-3.358-7.5-7.5-7.5-4.142 0-7.5 3.36-7.5 7.5v16.55h-17.065v-26.68c0-10.208 6.148-19.194 15.663-22.894l29.648-11.53 30.48 26.193c1.405 1.207 3.147 1.81 4.888 1.81 1.742 0 3.484-.603 4.89-1.81l30.478-26.194 29.65 11.53c9.513 3.7 15.66 12.686 15.66 22.894v26.68z"/><path fill="#FFFDD8" d="M480.452 68.138h-144.29c-17.397 0-31.55 14.152-31.55 31.548v53.006l-45.9 45.9c-2.144 2.145-2.786 5.37-1.625 8.173 1.16 2.803 3.896 4.63 6.93 4.63h40.597v.516c0 17.397 14.152 31.55 31.548 31.55h144.29c17.397 0 31.55-14.153 31.55-31.55V99.687C512 82.29 497.847 68.138 480.45 68.138zM497 211.912c0 9.125-7.423 16.548-16.548 16.548h-144.29c-9.126 0-16.55-7.423-16.55-16.548v-8.016c0-4.142-3.357-7.5-7.5-7.5h-29.99l35.294-35.293c1.407-1.406 2.197-3.314 2.197-5.303V99.686c0-9.125 7.423-16.548 16.548-16.548h144.292c9.125 0 16.548 7.423 16.548 16.548v112.226z"/><path fill="#FFFDD8" d="M464.42 108.22h-64.13c-4.142 0-7.5 3.357-7.5 7.5 0 4.14 3.358 7.5 7.5 7.5h64.13c4.14 0 7.5-3.36 7.5-7.5 0-4.144-3.358-7.5-7.5-7.5zM368.227 108.22h-16.033c-4.143 0-7.5 3.357-7.5 7.5 0 4.14 3.357 7.5 7.5 7.5h16.033c4.142 0 7.5-3.36 7.5-7.5 0-4.144-3.36-7.5-7.5-7.5zM464.42 148.298H352.192c-4.143 0-7.5 3.358-7.5 7.5 0 4.142 3.357 7.5 7.5 7.5H464.42c4.14 0 7.5-3.358 7.5-7.5 0-4.14-3.358-7.5-7.5-7.5zM464.42 188.38h-16.036c-4.142 0-7.5 3.357-7.5 7.5s3.358 7.5 7.5 7.5h16.035c4.14 0 7.5-3.36 7.5-7.5 0-4.142-3.358-7.5-7.5-7.5zM416.32 188.38h-64.127c-4.143 0-7.5 3.357-7.5 7.5s3.357 7.5 7.5 7.5h64.128c4.143 0 7.5-3.36 7.5-7.5 0-4.142-3.357-7.5-7.5-7.5z"/></svg>