<svg version="1.1" id="Calque_1" xmlns="http://www.w3.org/2000/svg" x="0" y="0" viewBox="0 0 799.85 246.84" xml:space="preserve"><style>.st10{fill:#595959}.st14{fill:#989b9b}.st15{fill:#87220e}.st17{fill:#aa332d}.st18{display:none}.st20,.st22{display:inline}.st22{fill:#1c88c7}.st23,.st25{display:inline;fill:#fefefe}.st25{fill:#8892bd}.st28{fill:#fff}.st29,.st30{display:inline;fill:#e34d26}.st30{fill:#f0652a}.st33{fill:#2e651f}.st34{fill:#82c025}.st35{fill:#a6d763}.st36{fill:#ba2d00}.st37{fill:#e15410}.st38{fill:#d44703}.st39{fill:#ff9551}</style><path d="M236.56 115.13l-124.53-10.79L10.6 94.69C4.21 94.09-.53 88.58.05 82.45l.48-5.09c.58-6.12 6.28-10.64 12.67-10.03l134.12 12.76 91.97 9.86c6.38.61 3.71 5.75 3.13 11.88l-.09 4.83c-.59 6.12.61 9.08-5.77 8.47z" fill="#282827"/><path d="M240.14 90l-88.22-9.51L23.25 68.26c-6.12-.58-11.61 3.95-12.2 10.08l-.48 5.09c-.58 6.1 3.92 11.56 10 12.18.03 0 .05.01.07.01l97.31 9.26 61.16 5.28 58.32 5.03c2.03.19 4.01-.06 5.79-.71l2.17-22.85c-1.53-.88-3.32-1.45-5.25-1.63z" fill="#8e5720"/><path d="M242.4 102.19c.47-5.07 1.8-9.45 3.12-10.54-.05-.03-.11-.07-.16-.08-1.55-.45-3.37 4.68-3.93 10.78s.24 12.59 1.79 12.12c.14-.04.29-.15.44-.29-1.19-.96-1.76-6.62-1.26-11.99z" fill="#110a01"/><path d="M247.25 102.89c.54-5.84-.54-10.52-1.73-11.24-1.33 1.09-2.66 5.47-3.12 10.54-.49 5.37.07 11.03 1.27 12 1.32-1.2 3.08-5.84 3.58-11.3z" fill="#281907"/><path d="M27.13 70.55c4.54 2.27 9.38 3.87 14.38 4.75.19.03.84-.28.46-.35-4.96-.87-9.76-2.46-14.25-4.72-.19-.09-.86.19-.59.32zm22.28 8.96c3.69.73 7.39 1.46 11.13 1.87 2.97.32 6.26.58 8.9-1.09.41-.26-.23-.29-.43-.16-2.69 1.71-6.23 1.14-9.21.76-3.33-.42-6.63-1.07-9.93-1.72-.2-.05-.85.26-.46.34zM32.7 91.46c-2.11.37-4.29.19-6.32-.52-.78-.27-1.93-.65-2.31-1.48-.42-.94.74-1.9 1.41-2.39 3.57-2.6 8.32-.94 12.17-.04 8.45 1.98 17.14 2.63 25.79 2.78 4.96.09 9.91.02 14.87-.06.14 0 .41-.02.51-.14.07-.08.14-.17-.04-.17-9.61.14-19.26.28-28.84-.75-4.86-.52-9.59-1.47-14.34-2.6-3.63-.86-7.92-1.35-11.03 1.21-.63.52-1.62 1.42-1.23 2.34.37.86 1.52 1.24 2.33 1.53 2.2.8 4.58.96 6.88.55.31-.03.66-.35.15-.26zm25.07 2.92c6.57.58 13.17.85 19.77.79a204.734 204.734 0 0014.43-.63c1.21-.1 2.54-.09 3.67-.6.9-.41 1.65-1.25 1.23-2.28-.36-.88-1.26-1.24-2.07-.73-.41.26.21.4.46.24.41-.26.85.54.94.81.18.57-.04 1.07-.51 1.42-.87.64-2.23.58-3.25.66-2.75.22-5.51.39-8.27.5-5.57.22-11.15.21-16.73-.03-3.13-.13-6.26-.34-9.38-.62-.31.01-.78.43-.29.47zm21.67-12.35c12.87 4.28 26.65 3.28 39.95 2.2l12.16-.99c.23-.02.77-.4.3-.36-6.87.56-13.75 1.2-20.63 1.61-6.68.41-13.41.53-20.06-.3-3.78-.48-7.52-1.27-11.14-2.48-.19-.07-.85.23-.58.32zm29.69 16.02c10.2-.2 20.4.79 30.37 2.95.21.04.85-.28.45-.36a132.154 132.154 0 00-30.53-2.96c-.25 0-.78.38-.29.37zm28.15-3.29c1.96-.3 3.94-.45 5.92-.46.17 0 .38-.03.51-.14.1-.07.11-.17-.04-.16-2.1.01-4.19.17-6.26.48-.08.01-.42.09-.42.2 0 .14.21.1.29.08zm10-8.49c5.81-.1 11.47 1.4 17.18 2.21 5.62.79 11.31 1 16.97.63 3.17-.21 6.32-.6 9.45-1.16.29-.05.64-.38.13-.28a82.334 82.334 0 01-17.17 1.27c-2.82-.09-5.64-.32-8.43-.7-2.86-.39-5.7-.96-8.54-1.43-3.07-.51-6.16-.89-9.27-.84-.22-.01-.8.3-.32.3zm10.43 8.37c2.09-.14 4.19-.11 6.28.09.27.03.77-.36.28-.4-2.15-.2-4.31-.22-6.46-.08-.11.01-.41.1-.41.24-.01.16.19.16.31.15zm-.19 7.95c4.05-1.39 8.37-1.12 12.54-.53 4.08.58 8.12 1.48 12.25 1.73 2.22.13 4.46.05 6.65-.36.28-.05.65-.35.14-.25-8.52 1.59-16.87-2.15-25.38-1.88-2.2.07-4.36.43-6.44 1.14-.5.17-.03.24.24.15zm42 7.09c9.65-1.57 19.63-3.17 29.37-1.46 2.66.47 5.27 1.19 7.77 2.2.16.07.81-.2.59-.29-9.25-3.7-19.42-3.29-29.11-2.02-2.84.37-5.67.83-8.49 1.29-.3.05-.64.36-.13.28zm13.07-7.48c-1.8.17-3.6.34-5.4.52-.13.01-.39.1-.41.25-.02.17.2.18.32.17 1.8-.17 3.6-.34 5.4-.52.13-.01.39-.1.41-.25.02-.17-.21-.18-.32-.17zm-11.38-7.61c4.83-1.53 9.87.05 14.57 1.33 4.81 1.31 9.72 2.24 14.68 2.71 2.82.27 5.66.4 8.49.39.42 0 .55-.54.06-.54-5.18.01-10.35-.45-15.45-1.38-2.56-.47-5.09-1.06-7.6-1.74-2.34-.64-4.69-1.31-7.1-1.68-2.6-.4-5.27-.4-7.8.4-.42.15-.3.65.15.51zm-14.43 1.65c-2.82-.26-5.65-.53-8.47-.79-.16-.02-.39.01-.51.14-.09.09-.11.23.07.24 2.82.26 5.65.53 8.47.79.16.02.39-.01.51-.14.09-.09.1-.22-.07-.24zm-61.58-6.77c-8.79-.82-16.68 4.01-25.1 5.6-.46.09-.31.6.14.51 8.27-1.56 16.09-6.37 24.71-5.57.37.03.74-.5.25-.54zM93 79.65c-7.21-.41-13.89-3.78-21.13-3.96-.34-.01-.74.5-.25.51 7.24.18 13.92 3.55 21.13 3.96.34.02.74-.48.25-.51zm-52.25 3.64c-3.68-1.5-7.51-2.56-11.44-3.15-.24-.04-.85.35-.44.41 3.88.57 7.68 1.61 11.31 3.1.22.09.88-.24.57-.36z" fill="#301b04"/><path d="M7.35 71.08c-2.15.91-4.06 6.54-4.19 9.76-.11 2.97 2.72 7.03 2.92 7.03.2.01-1.71-4.39-1.01-8.29 1.07-5.9 3.1-8.84 2.28-8.5z" fill="#848484"/><path fill="#101111" d="M300.02 115.61l-55.64-6.94.81-8.75 55.94 6.68z"/><path d="M634.93 203.25c31.15-32.6 74.21-93.37 86.2-120.87l26.61-.23 49.54-.43c-5.59 14.53-47.87 100.82-146.89 143.4a412.05 412.05 0 01-10.94 4.52c-16.36 6.47-33.21 11.59-50.34 15.42 15.19-11.95 30.73-26.02 45.82-41.81z" fill="#212121"/><path d="M505.43 246.69c-25.92-.38-45.56-1.34-70.37-2.74-7.15-.4-14.25-1.57-21.12-3.56-91.06-26.4-141.6-88.95-158.53-154.01l465.72-4c-11.99 27.5-55.04 88.27-86.2 120.87-15.09 15.79-30.63 29.85-45.82 41.81-28.45 1.45-52.35 2.09-83.68 1.63z" fill="#3d3d3d"/><path class="st10" d="M345.19 157.82c-1.17 2-11.78 7.22-26.05.19-14.28-7.03-26.82-23.65-25.65-25.65 1.17-2 13.69 2.09 27.96 9.12 14.28 7.03 24.91 14.35 23.74 16.34z"/><ellipse transform="rotate(-43.549 278.529 119.928)" class="st10" cx="278.54" cy="119.93" rx="2.92" ry="8.69"/><linearGradient id="SVGID_1_" gradientUnits="userSpaceOnUse" x1="-743.587" y1="6.242" x2="-737.772" y2="105.305" gradientTransform="scale(-1 1) rotate(3.331 -1376.329 3761.314)"><stop offset="0" stop-color="#1d1d1b"/><stop offset=".107" stop-color="#383836"/><stop offset=".251" stop-color="#545453"/><stop offset=".405" stop-color="#6b6b6a"/><stop offset=".57" stop-color="#7b7b7a"/><stop offset=".755" stop-color="#848484"/><stop offset="1" stop-color="#878787"/></linearGradient><path d="M796.3 86.12c-39.94 41.74-282.71 79.39-509.44 21.88-.97-.25-1.93-.55-2.87-.91-31.16-11.98-79-34.76 119.6-59.09C605.21 23.29 815.71 59.51 796.3 86.12z" fill="url(#SVGID_1_)"/><linearGradient id="SVGID_2_" gradientUnits="userSpaceOnUse" x1="-742.32" y1="99.89" x2="-758.467" y2="-21.362" gradientTransform="scale(-1 1) rotate(3.331 -1376.329 3761.314)"><stop offset=".013" stop-color="#050505"/><stop offset=".204" stop-color="#0e0e0e"/><stop offset=".512" stop-color="#252525"/><stop offset=".895" stop-color="#4b4b4a"/><stop offset="1" stop-color="#575756"/></linearGradient><path d="M798.63 89.62c-39.21 39.82-277.69 76.11-499.81 21.38-30.36-11.18-81.55-33.03 115.71-56.87s403.12 10.18 384.1 35.49z" fill="url(#SVGID_2_)"/><linearGradient id="SVGID_3_" gradientUnits="userSpaceOnUse" x1="482.78" y1="153.761" x2="482.78" y2="153.761"><stop offset="0" stop-color="#212120"/><stop offset=".451" stop-color="#1e1e1d"/><stop offset=".831" stop-color="#131313"/><stop offset="1" stop-color="#0c0c0c"/></linearGradient><ellipse transform="rotate(-21.921 284.697 89.84)" class="st14" cx="284.74" cy="89.84" rx="3.5" ry="4.44"/><path class="st14" d="M287.19 105.13c.03-.58.98-2.22 2.07-2.58 1.84-.6 3.99.78 4.82 3.08.23.65.33 1.31.32 1.93l-7.21-2.43z"/><path class="st15" d="M761.38 22.01c-8.1-10.92-18.95-10.36-27.65-10.29-.8.01-1.61.07-2.45.04-3.86-.1-6.86.47-8.9 1.66.43-.01.86-.02 1.28-.05 23.24-1.45 29.5 11.56 36.42 33.79 13.42 43.09 2.27 47.49-6.83 58.98-18.16 6.28-41.28 11.96-68.18 16.59 31.22-4.89 56.81-12.64 77.2-19.69 61.48-22.04 24.6-46.66-.89-81.03z"/><path d="M757.13 48.77c-6.92-22.23-5.4-33.36-28.64-31.9-.42.03-.71 1.2-1.14 1.2-3.68 2.13-7.79.38-4.23 6.2 7.82 12.79 13.53 25.05 16.53 32.92 2.51 6.59.68 16.82-.25 21.18-2.5 11.74-26.81 18.64-53.45 22.56-26.28 3.86-54.83 4.82-66.96 4.64-21.95-.33-38.66 1.97-54.14 4.69-10.36 1.56-19.87 3.49-29.56 5.2-21.75 3.26-46.12 4.53-84.03-2.27-32.75-5.87-64.05-9.41-111.85-1.04.03.01.06.01.09.02-3.31.49-8.61 2.4-12.08 3.01 144.04 20.48 267.31 17.3 358.13 1.68 26.9-4.63 49.24-6.52 67.4-12.8 9.1-11.49 17.6-12.2 4.18-55.29z" fill="#44140c"/><path class="st17" d="M760.07 47.16c-6.92-22.23-13.18-35.24-36.42-33.79-.42.03-.85.04-1.28.05-3.68 2.13-4.72 6.62-.62 12.08 14.2 18.92 15.22 25.18 16.53 32.92 1.17 6.96.68 16.82-.25 21.18-2.5 11.74-26.81 18.64-53.45 22.56-26.28 3.86-54.83 4.82-66.96 4.64-21.95-.33-38.66 1.97-54.14 4.69-10.36 1.56-19.87 3.49-29.56 5.2-21.75 3.26-46.12 4.53-84.03-2.27-32.75-5.87-64.05-9.41-111.85-1.04.03.01.06.01.09.02-3.31.49-6.69 1.03-10.17 1.64 132.3 26.82 266.28 23.31 357.11 7.69 26.9-4.63 50.02-10.31 68.18-16.59 9.09-11.49 20.24-15.89 6.82-58.98z"/><path class="st15" d="M577.41 123.9c.07 1.7-10.46 5.95-23.67 6.53s-24.07-2.72-24.15-4.42c-.07-1.7 9.16-.4 22.36-.99 13.21-.58 25.38-2.82 25.46-1.12zm144.75-22.54c-.19-.79-4.32-1.66-8.88-.55-4.56 1.11-5.41 4.03-6.08 4.36-1.38.69-4.57 3.86-.01 2.75s15.16-5.76 14.97-6.56zm-299.17 24.77c-13.56-.43-21.88-2.68-35.43-3.36-5.74-.29-14.24-2.06-19.85-3.3-1.9-.42-3.96-1.17-4.86-2.9 4.62-3.22 10.71-.46 16.33-.24 12.04.46 19.19 2.37 26.66 3.8 5.6 1.07 6.84 3.11 12.44 4.18 2.31.44 1.67.68 3.98 1.12m203.73.56l16.83-2.76c.58-.1-.97-1.07-1.04-1.11-.67-.35-1.6-.81-2.39-.68l-16.83 2.76c-.58.1.97 1.07 1.04 1.11.67.36 1.6.81 2.39.68zm-158.07-.29l16.95 1.89c.1.01.59.11.67-.08.08-.19-.32-.48-.4-.55-.66-.54-1.74-1.04-2.59-1.13l-16.95-1.89c-.1-.01-.59-.11-.67.08-.08.19.32.48.4.55.65.53 1.73 1.03 2.59 1.13zm175.06-9.04c11.01-2.16 22.15-3.65 33.35-4.43.36-.03 1.68-.07 1.42-.7-.23-.57-2.02-.55-2.44-.52-11.52.8-22.97 2.3-34.3 4.52-.52.1-1.31.25-.75.81.49.49 2.11.44 2.72.32zM751.1 2.84c-.8-.89-1.86-1.45-2.92-2.05-1.91-1.07-3.93-.96-6.06-.25-.64.21-1.36.47-1.44 1.17-.09.68.58.96 1.14 1.18 1.46.58 3.05.79 4.62 1.05 1.41.23 2.86.32 4.22.75.39.12.92.33 1.25-.05.31-.35-.17-.67-.3-.99-.12-.31-.28-.58-.51-.81zm-11.63 3.02c-.47-.52-1.1-.86-1.72-1.21-1.12-.63-2.32-.56-3.57-.15-.38.12-.8.28-.85.69-.05.4.34.57.67.7.86.34 1.8.47 2.73.62.83.13 1.69.19 2.49.44.23.07.54.19.74-.03.18-.21-.1-.39-.18-.59-.08-.17-.17-.33-.31-.47z"/><g class="st18"><path d="M347.81-23.21c-11.27-5.38-22.53-10.76-33.8-16.14-.21-.1-.24-.17-.14-.39 10.77-22.53 21.53-45.06 32.28-67.59.1-.21.17-.24.39-.14 22.53 10.77 45.06 21.53 67.59 32.28.21.1.24.17.14.39-10.77 22.53-21.53 45.06-32.28 67.59-.1.21-.17.24-.39.14-11.26-5.38-22.52-10.76-33.79-16.14z" fill="#f7df1e"/><path class="st20" d="M368.86-19.7c-2.48-1.16-4.57-2.63-6.19-4.71-1.67-2.15-2.56-4.59-2.69-7.31-.01-.2.03-.27.24-.28 2.04-.16 4.09-.32 6.13-.49.22-.02.28.04.3.25.17 1.44.53 2.82 1.34 4.05.91 1.37 2.19 2.26 3.7 2.84.67.26 1.36.41 2.08.43 2.88.1 4.28-2.71 3.07-4.9-.6-1.08-1.4-2.01-2.19-2.94-1.17-1.38-2.42-2.69-3.47-4.17-1.01-1.43-1.83-2.96-2.19-4.69-.35-1.69-.17-3.33.39-4.95.6-1.72 1.49-3.26 2.89-4.45 2.08-1.77 4.5-2.42 7.17-2.05 3.26.46 6.07 1.87 8.25 4.38 1.51 1.73 2.11 3.82 2.3 6.07.01.15-.03.2-.18.21-2.05.25-4.09.51-6.14.78-.21.03-.19-.09-.2-.21-.07-.83-.2-1.65-.58-2.4-.77-1.49-2.03-2.31-3.66-2.47-2.55-.26-3.91 2.57-2.99 4.45.46.95 1.11 1.77 1.79 2.56 1.3 1.52 2.66 2.98 3.83 4.6.87 1.2 1.63 2.46 2.13 3.87.76 2.15.65 4.28-.14 6.39-.61 1.63-1.47 3.1-2.78 4.28-1.88 1.7-4.13 2.36-6.63 2.28-1.99-.09-3.88-.65-5.58-1.42zm-5.98-27.29c-1.71 3.57-3.4 7.15-5.13 10.72-.79 1.64-1.87 3.08-3.32 4.2-2.02 1.55-4.31 2.06-6.78 1.62-3.2-.57-5.97-1.97-8.12-4.46-1.72-2-2.45-4.37-2.5-6.98 0-.15.03-.21.2-.23 2.1-.2 4.21-.41 6.31-.62.2-.02.22.07.23.22a14 14 0 00.25 2.05c.44 2.17 2.07 3.24 4.05 3.48 1.13.14 1.95-.47 2.62-1.32.43-.55.75-1.16 1.05-1.78 3.38-7.07 6.76-14.15 10.13-21.22.14-.3.25-.31.52-.17 1.91.93 3.83 1.85 5.76 2.75.24.11.26.2.15.44-1.81 3.77-3.61 7.54-5.41 11.32 0-.01-.01-.01-.01-.02z"/></g><g class="st18"><path d="M423.01-218.07c.16.01 54.63 3.11 81.7 4.67.08 0 .16.02.24.01.23-.02.26.09.23.29-.09.52-.16 1.04-.23 1.56l-1.53 10.28-1.29 8.82-1.53 10.28c-.47 3.19-.93 6.38-1.4 9.57l-1.53 10.28c-.47 3.19-.93 6.38-1.4 9.57-.58 3.95-1.17 7.89-1.76 11.84-.53 3.56-1.06 7.13-1.57 10.69-.03.24-.12.32-.34.37-3.83.82-7.66 1.65-11.48 2.48-6.65 1.44-13.3 2.87-19.95 4.31-.78.17-1.56.28-2.32.54-.09-.01-.18-.01-.27-.02-.07-.1-.2-.11-.3-.14-1.27-.44-2.55-.87-3.83-1.3-9.5-3.24-19-6.48-28.5-9.71-.2-.07-.29-.14-.29-.37-.04-1.6-.09-3.2-.14-4.8l-.21-6.58c-.07-2.17-.13-4.34-.2-6.51l-.21-6.58c-.07-2.18-.13-4.37-.2-6.55l-.24-7.34c-.07-2.19-.13-4.39-.2-6.58-.08-2.7-.18-5.39-.26-8.09-.07-2.19-.13-4.39-.2-6.58l-.24-7.34c-.08-2.45-.15-4.89-.22-7.34-.08-2.53-.15-5.05-.24-7.58-.04-.62-.09-2.04-.09-2.15zm37.33 67.05c-.15-.05-.3-.11-.45-.16-3.51-1.17-7.02-2.34-10.53-3.5-.21-.07-.32-.15-.33-.39-.03-1.38-.07-2.77-.12-4.15l-.12-3.57c0-.18-.05-.26-.25-.27-3.28-.18-6.56-.37-9.84-.57-.24-.01-.25.07-.24.27.04 1.09.07 2.17.1 3.26.06 1.93.11 3.86.17 5.79.07 2.19.15 4.39.21 6.58.01.27.09.36.34.45 5.9 2.01 11.8 4.02 17.71 6.03.91.31 1.8.65 2.73.9.02.01.04.02.07.03-.05.93-.11 1.85-.16 2.78-.14 2.5-.29 5-.43 7.51-.02.35.02.38.36.3.26-.06.51-.11.77-.16 2.45-.53 4.9-1.06 7.34-1.59 2.24-.48 4.47-.96 6.71-1.45l7.38-1.59c1.56-.34 3.11-.68 4.67-1.01.28-.06.4-.2.42-.49.03-.39.09-.77.14-1.15l.42-2.76c.09-.6.16-1.19.25-1.79.14-.96.29-1.91.43-2.86.09-.6.16-1.19.25-1.79l.42-2.73c.09-.61.16-1.22.25-1.82.14-.96.29-1.91.43-2.86.09-.57.16-1.15.25-1.72l.42-2.73c.09-.61.16-1.22.25-1.82.14-.96.29-1.91.43-2.86.09-.6.16-1.19.25-1.79l.42-2.76c.09-.6.16-1.19.25-1.79.14-.96.29-1.91.43-2.86.09-.57.16-1.15.25-1.72l.42-2.73c.09-.61.16-1.22.25-1.82.14-.97.29-1.93.43-2.9.08-.56.16-1.13.25-1.69.14-.94.29-1.89.43-2.83.09-.6.15-1.2.25-1.79.16-.96.31-1.93.43-2.9.07-.56.16-1.13.24-1.69l.42-2.69c.09-.62.16-1.24.26-1.86.17-1.13.36-2.27.53-3.4.13-.9.23-1.81.37-2.7.2-1.26.38-2.52.57-3.77.05-.32-.07-.32-.3-.34-10.94-.63-21.89-1.26-32.83-1.9-.33-.02-.4.08-.42.39-.18 3.29-.37 6.58-.56 9.87-.02.01-.04.01-.07.02-.15-.01-.3-.03-.44-.04-8.27-.48-16.54-.96-24.8-1.43-.51-.03-.51-.03-.5.46v.41c.1 3 .2 6.01.29 9.01.01.31.06.44.43.46 8.03.45 16.06.92 24.09 1.38.11.01.23.01.34.01l.06.03c-.2 3.51-.4 7.01-.61 10.51-.02.01-.04.02-.07.02-.08-.01-.16-.02-.24-.02l-23.33-1.35c-.05 0-.09 0-.14-.01-.17-.03-.21.05-.2.21.04 1.01.07 2.01.1 3.02.07 2.23.15 4.46.21 6.68.01.34.1.43.44.45 7.41.42 14.83.85 22.24 1.28.11.01.23.01.34.01l.06.03c-.31 5.3-.61 10.6-.92 15.89-.01.17-.01.34-.02.51 0 0-.02.01-.05.02z" fill="#1b73ba"/><path class="st22" d="M463.15-198.61c.19-3.29.38-6.58.56-9.87.02-.3.09-.4.42-.39 10.94.64 21.89 1.27 32.83 1.9.23.01.35.01.3.34-.19 1.26-.36 2.52-.57 3.77-.15.9-.24 1.8-.37 2.7-.17 1.13-.36 2.27-.53 3.4-.09.62-.16 1.24-.26 1.86-.13.9-.28 1.79-.42 2.69a45.8 45.8 0 00-.24 1.69c-.13.97-.27 1.93-.43 2.9-.1.59-.17 1.19-.25 1.79-.14.94-.29 1.89-.43 2.83-.08.56-.16 1.13-.25 1.69-.14.97-.29 1.93-.43 2.9-.09.61-.16 1.22-.25 1.82l-.42 2.73c-.09.57-.16 1.15-.25 1.72-.14.95-.29 1.91-.43 2.86-.09.6-.16 1.19-.25 1.79l-.42 2.76c-.09.6-.17 1.19-.25 1.79-.14.95-.29 1.91-.43 2.86-.09.61-.16 1.22-.25 1.82l-.42 2.73c-.09.57-.16 1.15-.25 1.72-.14.95-.29 1.91-.43 2.86-.09.61-.16 1.22-.25 1.82l-.42 2.73c-.09.6-.17 1.19-.25 1.79-.14.95-.29 1.91-.43 2.86-.09.6-.16 1.19-.25 1.79l-.42 2.76c-.06.38-.12.77-.14 1.15-.02.29-.13.43-.42.49-1.56.33-3.12.67-4.67 1.01l-7.38 1.59c-2.24.48-4.47.96-6.71 1.45-2.45.53-4.9 1.06-7.34 1.59-.26.06-.51.11-.77.16-.34.08-.38.05-.36-.3.14-2.5.29-5 .43-7.51.05-.93.11-1.85.16-2.78.08-.02.15-.05.23-.07l20.29-4.38c.88-.19.86-.19.99-1.07.27-1.9.55-3.8.83-5.7l.87-5.87c.28-1.87.55-3.73.83-5.6l.87-5.84.72-4.89c.28-1.91.57-3.82.85-5.73.28-1.89.55-3.78.83-5.67.32-2.19.65-4.39.98-6.58.25-1.66.49-3.33.74-4.99.06-.41.07-.41-.33-.43l-24.91-1.44c-.17.03-.31.02-.45 0z"/><path class="st23" d="M488.48-197.13l-24.91-1.44c-.14-.01-.27-.02-.41-.04-.02.01-.04.01-.07.02-.15-.01-.3-.03-.44-.04-8.27-.48-16.54-.96-24.8-1.43-.51-.03-.51-.03-.5.46v.41c.1 3 .2 6.01.29 9.01.01.31.06.44.43.46 8.03.45 16.06.92 24.09 1.38.11.01.23.01.34.01l.06.03h.34c4.57.26 9.13.53 13.7.78.32.02.39.11.34.42-.3 1.95-.58 3.91-.87 5.87-.2 1.32-.39 2.64-.58 3.97-.03.19-.06.27-.29.26-4.38-.26-8.77-.51-13.15-.77-.03 0-.07-.01-.1-.02-.02.01-.04.02-.07.02-.08-.01-.16-.02-.24-.02l-23.33-1.35c-.05 0-.09 0-.14-.01-.17-.03-.21.05-.2.21.04 1.01.07 2.01.1 3.02.07 2.23.15 4.46.21 6.68.01.34.1.43.44.45 7.41.42 14.83.85 22.24 1.28.11.01.23.01.34.01l.06.03c.37.02.73.03 1.1.05 3.72.21 7.44.43 11.17.64.29.02.35.07.3.37-.3 1.9-.57 3.8-.85 5.7-.32 2.17-.64 4.34-.97 6.51-.11.74-.13.74-.81.88-3.53.74-7.06 1.47-10.59 2.21-.09.02-.18.03-.27.04-.03.01-.06.02-.08.03-.15-.05-.3-.11-.45-.16-3.51-1.17-7.02-2.34-10.53-3.5-.21-.07-.32-.15-.33-.39-.03-1.38-.07-2.77-.12-4.15l-.12-3.57c0-.18-.05-.26-.25-.27-3.28-.18-6.56-.37-9.84-.57-.24-.01-.25.07-.24.27.04 1.09.07 2.17.1 3.26.06 1.93.11 3.86.17 5.79.07 2.19.15 4.39.21 6.58.01.27.09.36.34.45 5.9 2.01 11.8 4.02 17.71 6.03.91.31 1.8.65 2.73.9.02.01.04.02.07.03.08-.02.15-.05.23-.07l20.29-4.38c.88-.19.86-.19.99-1.07.27-1.9.55-3.8.83-5.7l.87-5.87c.28-1.87.55-3.73.83-5.6l.87-5.84.72-4.89c.28-1.91.57-3.82.85-5.73.28-1.89.55-3.78.83-5.67.32-2.19.65-4.39.98-6.58.25-1.66.49-3.33.74-4.99.03-.38.04-.38-.36-.4z"/><path class="st22" d="M461.35-167.46c.37.02.73.03 1.1.05 3.72.21 7.44.43 11.17.64.29.02.35.07.3.37-.3 1.9-.57 3.8-.85 5.7-.32 2.17-.64 4.34-.97 6.51-.11.74-.13.74-.81.88-3.53.74-7.06 1.47-10.59 2.21-.09.02-.18.03-.27.04.01-.17.01-.34.02-.51.29-5.29.6-10.59.9-15.89zm1.21-20.83h.34c4.57.26 9.13.53 13.7.78.32.02.39.11.34.42-.3 1.95-.58 3.91-.87 5.87-.2 1.32-.39 2.64-.58 3.97-.03.19-.06.27-.29.26-4.38-.26-8.77-.51-13.15-.77-.03 0-.07-.01-.1-.02.2-3.5.4-7.01.61-10.51z"/></g><g class="st18"><path class="st20" d="M448.63 13.09c.21-.08.43-.14.65-.19 1.19-.26 2.37-.56 3.57-.74 15.77-2.37 28.63 2.46 37.71 15.02 7.86 10.88 8.93 23.01 3.63 35.55-4.01 9.48-11.05 16.23-20.72 20.31-17.65 7.44-38.24.9-47.56-15.1-9.89-16.97-4.68-38.53 12.02-49.72 1.56-1.04 3.26-1.87 4.89-2.8.03-.02.07-.04.1-.06.34-.23.72-.4 1.1-.54l4.61-1.73zm8.57 28.16c-.28-.09-.53-.16-.77-.25-1.11-.42-2.2-.88-3.32-1.25-3.47-1.16-6.89-1.09-10.12.91-3.27 2.02-4.87 5.45-4.1 8.84.63 2.76 2.6 4.47 5.05 5.72 1.05.54 2.14 1 3.19 1.54 1.66.86 2.28 2.48 1.55 4.18-1.09 2.54-4.05 3.22-6.2 2.4-.73-.28-.79-.87-.7-1.58.09-.78.17-1.61 0-2.35-.38-1.63-1.96-2.49-3.54-2.07-1.62.43-2.39 1.67-1.98 3.41.56 2.4 2.32 3.69 4.65 4.22 3.14.71 6.17.25 8.98-1.37 1.87-1.08 3.27-2.6 4.06-4.61 1.15-2.9.46-5.97-2.04-7.79-1.76-1.28-3.76-2.24-5.69-3.3-.82-.45-1.54-.97-1.92-1.83-.95-2.12.55-4.52 3.09-5.01 1.93-.37 3.79-.17 5.6.48 1.24.44 2.47.94 3.72 1.35.5.16.62.42.68.9.37 3.21.78 6.41 1.2 9.61.54 4.14 1.2 8.27 1.64 12.43.27 2.57.04 5.15-1.03 7.6-.63 1.44-1.53 2.66-2.97 3.44-.5.27-1.14.46-1.46-.08-.18-.29-.03-.93.19-1.28 1.06-1.65.57-3.4-1.24-4.16-1.39-.58-2.96-.19-4.07 1.02-1.21 1.32-1.43 3.16-.56 4.59 1.05 1.72 3.1 2.49 5.46 2.04 3.01-.57 5.28-2.29 7.12-4.59 3.03-3.78 4.32-8.2 4.81-12.85.5-4.7-.15-9.32-.94-13.92-.26-1.5-.52-3-.77-4.49 1.38-.52 2.7-.91 3.93-1.48 2.25-1.05 4.13-2.54 5.16-4.86.51-1.16.59-2.32.01-3.47-.45-.89-1.51-1.57-2.41-1.46-1.11.14-1.84.79-2.23 1.79-.38.98-.14 1.62.82 2.42.16.14.33.27.49.42.51.47.57 1.01.14 1.56-1.56 2-3.79 2.78-6.2 3.4-.12-.68-.23-1.24-.33-1.81-.55-3.29-1.17-6.57-1.08-9.94.04-1.55.25-3.08.95-4.51.77-1.56 2-2.6 3.73-3.03 1.05-.26 1.56.18 1.44 1.21-.04.32-.11.63-.14.95-.19 1.83 1.33 3.17 3.17 2.81 2.25-.44 3.36-2.59 2.38-4.68-.85-1.79-2.46-2.39-4.34-2.3-4.17.19-7.19 2.35-9.39 5.68-2.19 3.3-3.04 7.02-3.41 10.85-.15 1.52-.18 3-.26 4.55z"/><path d="M457.2 41.25c.08-1.55.11-3.03.25-4.51.37-3.83 1.22-7.54 3.41-10.85 2.21-3.33 5.23-5.5 9.39-5.68 1.88-.08 3.49.51 4.34 2.3.98 2.08-.12 4.23-2.38 4.68-1.84.36-3.36-.98-3.17-2.81.03-.32.1-.63.14-.95.12-1.04-.38-1.48-1.44-1.21-1.73.43-2.96 1.46-3.73 3.03-.7 1.43-.91 2.96-.95 4.51-.08 3.37.53 6.65 1.08 9.94.09.57.2 1.13.33 1.81 2.4-.63 4.64-1.4 6.2-3.4.43-.55.37-1.09-.14-1.56-.16-.14-.32-.28-.49-.42-.96-.8-1.19-1.43-.82-2.42.38-1.01 1.12-1.65 2.23-1.79.89-.11 1.95.56 2.41 1.46.58 1.15.5 2.31-.01 3.47-1.03 2.32-2.91 3.8-5.16 4.86-1.23.58-2.54.97-3.93 1.48.26 1.49.51 2.99.77 4.49.8 4.6 1.44 9.22.94 13.92-.49 4.65-1.78 9.07-4.81 12.85-1.84 2.29-4.12 4.01-7.12 4.59-2.36.45-4.41-.32-5.46-2.04-.87-1.43-.65-3.27.56-4.59 1.11-1.21 2.68-1.61 4.07-1.02 1.81.76 2.3 2.51 1.24 4.16-.22.35-.37.98-.19 1.28.32.54.96.35 1.46.08 1.44-.78 2.34-2 2.97-3.44 1.07-2.45 1.31-5.04 1.03-7.6-.44-4.16-1.09-8.28-1.64-12.43-.42-3.2-.83-6.4-1.2-9.61-.06-.48-.18-.74-.68-.9-1.25-.41-2.48-.91-3.72-1.35-1.81-.65-3.68-.84-5.6-.48-2.54.48-4.04 2.89-3.09 5.01.38.86 1.1 1.38 1.92 1.83 1.92 1.06 3.93 2.02 5.69 3.3 2.51 1.82 3.19 4.89 2.04 7.79-.79 2-2.19 3.53-4.06 4.61-2.82 1.62-5.85 2.08-8.98 1.37-2.33-.53-4.09-1.82-4.65-4.22-.41-1.74.36-2.98 1.98-3.41 1.58-.42 3.16.44 3.54 2.07.18.74.1 1.57 0 2.35-.08.71-.03 1.3.7 1.58 2.15.82 5.11.13 6.2-2.4.73-1.7.11-3.31-1.55-4.18-1.05-.54-2.14-1.01-3.19-1.54-2.45-1.25-4.42-2.96-5.05-5.72-.78-3.39.83-6.82 4.1-8.84 3.23-2 6.65-2.07 10.12-.91 1.12.37 2.22.84 3.32 1.25.25.05.5.12.78.21z" fill="#fff"/></g><g class="st18"><path class="st25" d="M493.32-45.27c-.38-.92-.76-1.85-1.14-2.77.02 0 .04.03.05-.01 0-.01.01-.03 0-.05-.13-.51-.28-1.01-.38-1.52-.54-2.72-.41-5.42.2-8.11.68-2.98 1.87-5.76 3.39-8.41 1.78-3.12 3.94-5.96 6.35-8.61 4.98-5.47 10.74-10.01 16.98-13.95 2.13-1.34 4.3-2.61 6.53-3.78 1.37-.72 2.75-1.43 4.15-2.1.72-.34 1.44-.67 2.16-1.01.06-.03.18-.02.16-.15 2.28-.94 4.56-1.88 6.83-2.82 0 .01-.01.03-.01.04 0 0 .01.01.02.01.09-.02.18-.04.27-.07.9-.34 1.8-.66 2.71-.97 2.47-.84 4.96-1.62 7.49-2.28 3.05-.81 6.13-1.47 9.25-1.99 4.66-.77 9.34-1.17 14.06-1.1 3.76.06 7.48.42 11.14 1.27 3.21.74 6.29 1.81 9.15 3.46 2.01 1.16 3.83 2.56 5.36 4.32.82.94 1.53 1.95 2.12 3.04.03.05.03.16.15.12.38.91.75 1.82 1.13 2.72-.01 0-.01 0-.02-.01h-.02c.01.27.13.51.19.77.67 2.66.67 5.33.18 8.02-.55 2.98-1.64 5.76-3.07 8.43-1.3 2.43-2.85 4.69-4.57 6.83-2.85 3.55-6.08 6.73-9.58 9.63a93.315 93.315 0 01-8.92 6.51c-1.76 1.13-3.56 2.22-5.39 3.24-1.57.87-3.16 1.7-4.76 2.5-1.6.8-3.21 1.57-4.85 2.28-3.68 1.6-7.42 3.02-11.25 4.21-2.31.72-4.64 1.39-7 1.95-2.5.6-5.02 1.11-7.56 1.51-4.04.64-8.11 1.03-12.2 1.04-4.34.01-8.63-.35-12.86-1.36-3.48-.83-6.8-2.06-9.83-4-1.68-1.08-3.2-2.34-4.49-3.87-.75-.89-1.41-1.84-1.97-2.86-.04-.04-.03-.17-.15-.1zm22.16-26.39c-2.19.91-4.38 1.81-6.57 2.72-.55.23-.56.23-.44.81.81 4.07 1.62 8.14 2.43 12.22.75 3.74 1.49 7.49 2.24 11.23l1.62 8.16c.04.23.11.24.31.16 2.18-.91 4.37-1.81 6.55-2.71.17-.07.24-.14.19-.34-.22-1-.42-2.01-.63-3.02-.34-1.65-.68-3.3-1.02-4.94-.02-.12-.03-.2.11-.26 2.24-.92 4.47-1.85 6.71-2.75.91-.37 1.79-.78 2.6-1.33 3.11-2.13 5.06-5.07 5.82-8.75.81-3.92.09-7.62-1.99-11.03-1.36-2.22-3.36-3.49-5.98-3.7-1.97-.16-3.85.23-5.67.94-2.11.84-4.19 1.72-6.28 2.59zm58.4 1.88c.88-.36 1.75-.74 2.64-1.08 1.48-.57 2.83-1.34 4.01-2.39 2.62-2.33 4.16-5.25 4.65-8.72.29-2.06.11-4.09-.45-6.08-.44-1.56-1.05-3.05-2.01-4.38-1.31-1.83-3.07-2.94-5.32-3.21-2.05-.25-4.04.1-5.93.86-4.44 1.79-8.86 3.64-13.28 5.47-.18.08-.24.16-.2.36 1.08 5.37 2.14 10.74 3.22 16.11l3.15 15.81c.05.27.05.27.31.16 2.18-.9 4.37-1.81 6.55-2.7.2-.08.22-.17.18-.36-.55-2.63-1.09-5.26-1.64-7.89-.04-.17 0-.26.17-.33 1.33-.54 2.64-1.09 3.95-1.63zm-15.9 6.57c1.17-.48 2.33-.97 3.5-1.44.16-.07.2-.14.16-.31-.16-.64-.3-1.29-.44-1.94l-3.21-14.18c-.21-.93-.54-1.81-1.12-2.57-1-1.32-2.37-1.94-3.97-2.1-1.96-.18-3.83.24-5.64.96-2 .8-4 1.64-5.99 2.47-.18.07-.24.07-.29-.15-.54-2.63-1.09-5.26-1.62-7.9-.05-.23-.12-.22-.3-.15-2.18.91-4.37 1.81-6.55 2.71-.18.08-.24.16-.2.36.67 3.34 1.34 6.68 2 10.01l2.43 12.21c.65 3.25 1.29 6.49 1.94 9.74.03.17.09.2.25.13 2.22-.92 4.44-1.84 6.66-2.75.13-.06.17-.12.14-.26-.19-.93-.37-1.86-.55-2.8-.97-4.94-1.95-9.89-2.93-14.83-.03-.17.01-.24.17-.31 1.84-.75 3.68-1.52 5.52-2.27.38-.15.77-.26 1.17-.33.7-.11 1.22.13 1.57.71.32.55.42 1.17.55 1.78.48 2.23.93 4.47 1.39 6.7.53 2.58 1.07 5.16 1.6 7.73.06.28.06.28.31.17 1.15-.44 2.3-.91 3.45-1.39z"/><path d="M515.48-71.66c2.09-.86 4.17-1.75 6.27-2.58 1.82-.72 3.7-1.1 5.67-.94 2.62.21 4.63 1.48 5.98 3.7 2.08 3.41 2.79 7.11 1.99 11.03-.76 3.68-2.71 6.61-5.82 8.75-.81.55-1.69.96-2.6 1.33-2.24.91-4.47 1.84-6.71 2.75-.14.06-.14.14-.11.26.34 1.65.68 3.3 1.02 4.94.21 1.01.41 2.02.63 3.02.04.2-.02.27-.19.34-2.19.9-4.37 1.8-6.55 2.71-.2.08-.26.07-.31-.16-.53-2.72-1.08-5.44-1.62-8.16-.75-3.74-1.49-7.49-2.24-11.23-.81-4.07-1.62-8.14-2.43-12.22-.12-.58-.11-.58.44-.81 2.2-.92 4.39-1.83 6.58-2.73zm3.8 4.93c-.82.34-1.64.69-2.47 1.01-.22.09-.24.19-.19.39.42 1.8.83 3.6 1.25 5.39.46 1.98.91 3.96 1.36 5.94.05.2.1.25.3.16 1.14-.48 2.28-.97 3.44-1.42.93-.36 1.77-.88 2.56-1.48 1.68-1.27 2.53-2.96 2.51-5.07-.01-1.47-.33-2.9-.85-4.26-.43-1.15-1.29-1.87-2.54-2.06-1.08-.17-2.09.07-3.08.45-.77.31-1.52.64-2.29.95zm54.6-3.05c-1.31.54-2.62 1.09-3.94 1.62-.18.07-.21.15-.17.33.55 2.63 1.09 5.26 1.64 7.89.04.19.02.28-.18.36-2.19.89-4.37 1.8-6.55 2.7-.26.11-.25.1-.31-.16l-3.15-15.81c-1.07-5.37-2.14-10.74-3.22-16.11-.04-.2.02-.28.2-.36 4.43-1.82 8.84-3.68 13.28-5.47 1.89-.76 3.88-1.11 5.93-.86 2.25.28 4.01 1.38 5.32 3.21.95 1.33 1.57 2.81 2.01 4.38.56 2 .74 4.03.45 6.08-.49 3.47-2.03 6.39-4.65 8.72-1.18 1.05-2.54 1.82-4.01 2.39-.89.35-1.77.73-2.65 1.09zm-4.97-17.44c-.74.3-1.47.61-2.21.91-.53.22-.53.22-.4.78.85 3.68 1.7 7.36 2.54 11.04.05.2.1.25.31.16 1.13-.48 2.27-.96 3.42-1.41.93-.36 1.77-.88 2.57-1.47 1.69-1.27 2.54-2.97 2.52-5.09-.02-1.48-.33-2.9-.85-4.26-.48-1.26-1.44-1.96-2.8-2.09-.99-.09-1.92.14-2.83.49-.76.3-1.51.62-2.27.94zm-10.93 24.01c-1.15.47-2.29.95-3.44 1.42-.25.11-.26.11-.31-.17-.53-2.58-1.07-5.16-1.6-7.73-.46-2.23-.92-4.47-1.39-6.7-.13-.61-.23-1.23-.55-1.78-.35-.59-.87-.82-1.57-.71-.4.06-.79.17-1.17.33-1.84.76-3.68 1.52-5.52 2.27-.16.07-.2.14-.17.31.98 4.94 1.95 9.89 2.93 14.83.18.93.36 1.87.55 2.8.03.14-.01.21-.14.26-2.22.91-4.44 1.83-6.66 2.75-.16.07-.22.04-.25-.13-.64-3.25-1.29-6.49-1.94-9.74l-2.43-12.21c-.67-3.34-1.33-6.68-2-10.01-.04-.2.01-.28.2-.36 2.19-.9 4.37-1.8 6.55-2.71.18-.07.25-.09.3.15.53 2.63 1.08 5.26 1.62 7.9.04.21.11.22.29.15 1.99-.83 3.99-1.67 5.99-2.47 1.81-.72 3.68-1.15 5.64-.96 1.6.15 2.97.78 3.97 2.1.58.77.91 1.65 1.12 2.57l3.21 14.18c.15.65.29 1.29.44 1.94.04.18 0 .25-.16.31-1.18.44-2.35.93-3.51 1.41z" fill="#232531"/><path class="st25" d="M519.28-66.73c.76-.32 1.52-.65 2.29-.94.99-.38 2.01-.62 3.08-.45 1.24.2 2.1.91 2.54 2.06.51 1.37.83 2.79.85 4.26.02 2.11-.83 3.8-2.51 5.07-.79.6-1.63 1.11-2.56 1.48-1.15.45-2.3.94-3.44 1.42-.21.09-.26.04-.3-.16-.45-1.98-.91-3.96-1.36-5.94-.41-1.8-.83-3.6-1.25-5.39-.05-.21-.03-.31.19-.39.83-.33 1.65-.68 2.47-1.02zm49.63-20.49c.76-.31 1.51-.64 2.27-.93.91-.35 1.84-.58 2.83-.49 1.36.13 2.32.83 2.8 2.09.52 1.37.84 2.79.85 4.26.03 2.13-.83 3.82-2.52 5.09-.79.6-1.63 1.11-2.57 1.47-1.15.45-2.28.93-3.42 1.41-.21.09-.26.03-.31-.16-.84-3.68-1.69-7.36-2.54-11.04-.13-.57-.13-.57.4-.78.74-.32 1.47-.62 2.21-.92z"/></g><g class="st18"><circle cx="681.39" cy="-60.36" r="37.19" fill="#62d9fa"/><g class="st20"><path class="st28" d="M691.15-81.57c.81 1.97 1.3 4.03 1.65 6.13.06.37.2.41.52.39 2.43-.18 4.85-.18 7.25.26 1.8.33 3.54.85 5.02 1.99 1.62 1.26 2.22 2.91 1.87 4.92-.32 1.84-1.24 3.4-2.33 4.88-1.4 1.9-3.08 3.54-4.9 5.03-.24.19-.29.32-.1.61 1.42 2.06 2.63 4.23 3.46 6.6.6 1.7.99 3.45.7 5.26-.36 2.24-1.73 3.56-3.88 4.14-2.17.59-4.34.38-6.5-.01-1.74-.32-3.43-.83-5.08-1.46-.38-.14-.49-.04-.64.29-1.13 2.35-2.46 4.58-4.2 6.54-1.05 1.18-2.23 2.21-3.69 2.84-1.75.76-3.44.61-5-.54-1.27-.93-2.13-2.2-2.85-3.57-1.3-2.5-2-5.18-2.47-7.94-.06-.37-.21-.41-.52-.38-2.47.19-4.93.17-7.37-.29-1.84-.35-3.62-.89-5.08-2.12-1.68-1.42-2.18-3.43-1.47-5.67.56-1.77 1.54-3.28 2.69-4.7 1.28-1.58 2.73-3 4.32-4.27.32-.25.26-.45.07-.72-1.32-1.93-2.48-3.95-3.28-6.16-.64-1.74-1.09-3.53-.85-5.41.24-1.9 1.21-3.27 2.99-4.04 1.4-.61 2.87-.74 4.36-.68 2.37.09 4.65.64 6.88 1.38.47.15.94.3 1.39.49.26.11.34.02.44-.2.75-1.61 1.62-3.17 2.65-4.62 1.18-1.66 2.49-3.19 4.23-4.31 2.49-1.6 5.02-1.31 7.04.84 1.07 1.13 1.88 2.48 2.68 4.5zm-6.36 29.63c1.51-.56 2.95-1.26 4.4-1.94.23-.11.29-.28.34-.49.7-3.11 1.11-6.27 1.32-9.45.02-.24-.05-.39-.23-.55-2.35-2.18-4.88-4.13-7.54-5.91-.2-.14-.37-.14-.59-.06-.61.22-1.23.43-1.84.64-2.43.81-4.77 1.85-7.08 2.96-.19.09-.26.24-.3.44-.14.74-.31 1.48-.44 2.22-.44 2.38-.73 4.77-.88 7.19-.01.21-.04.4.16.58 2.39 2.19 4.93 4.19 7.64 5.98.16.1.29.13.48.07 1.53-.54 3.07-1.04 4.56-1.68zm20.11-17.83a2.55 2.55 0 00-.46-.68c-.81-.83-1.85-1.23-2.93-1.53-2.63-.73-5.32-.74-8.01-.57-.28.02-.28.15-.26.36.21 2.25.28 4.5.2 6.75-.01.18.05.29.17.41 1.61 1.56 3.12 3.21 4.52 4.97.19.24.31.27.56.06 1.48-1.24 2.87-2.56 4.06-4.08.86-1.1 1.63-2.26 2.06-3.61.22-.68.31-1.37.09-2.08zm-30.92 29.71c.26.67.53 1.33.89 1.95.57.98 1.19 1.92 2.18 2.53.5.31 1.03.38 1.6.27.93-.19 1.67-.73 2.36-1.33 2.21-1.96 3.64-4.47 4.92-7.07.12-.24 0-.29-.18-.37-2.02-.95-3.99-1.99-5.87-3.18a.822.822 0 00-.71-.1c-2.1.59-4.23 1.07-6.4 1.38-.26.04-.37.13-.31.42.37 1.87.78 3.73 1.52 5.5zm9.55-45.14c-.18.09-.36.17-.53.27-1.06.61-1.91 1.45-2.69 2.38-1.42 1.69-2.5 3.59-3.46 5.56-.08.16-.12.27.1.37 2.11.95 4.12 2.07 6.09 3.28.12.07.23.09.37.05 2.18-.61 4.39-1.09 6.63-1.44.23-.04.33-.08.28-.34-.44-2.41-1.04-4.76-2.13-6.97-.5-1.01-1.11-1.96-1.97-2.72-.8-.69-1.69-.85-2.69-.44zM657.9-50.89c.22.45.54.81.95 1.1.82.6 1.76.93 2.72 1.17 2.52.64 5.09.66 7.66.49.25-.02.33-.1.3-.37-.21-2.15-.27-4.31-.2-6.47.01-.35-.08-.6-.33-.84a47.694 47.694 0 01-4.42-4.89c-.15-.2-.26-.19-.44-.04-.99.84-1.96 1.7-2.84 2.66-1.29 1.39-2.46 2.85-3.18 4.63-.32.83-.51 1.68-.22 2.56zm4.02-18.99c.75 1.8 1.71 3.46 2.78 5.05.18.26.29.26.53.09 1.73-1.23 3.52-2.34 5.39-3.34.2-.11.49-.16.56-.45.56-2.23 1.24-4.42 2.1-6.55.1-.24.01-.33-.21-.4-.4-.13-.8-.28-1.2-.42-1.92-.63-3.87-1.12-5.9-1.23-1.24-.06-2.46-.01-3.62.53-.71.33-1.13.85-1.3 1.6-.07.34-.1.68-.1 1.03.04 1.44.48 2.78.97 4.09zm39.03 19.32c-.82-2.03-1.78-3.66-2.82-5.24-.19-.29-.35-.3-.62-.11-1.77 1.25-3.61 2.4-5.54 3.41-.21.11-.35.25-.41.5a51.24 51.24 0 01-2.05 6.4c-.09.23-.04.34.19.41.68.22 1.35.47 2.04.68 2.07.62 4.16 1.07 6.34.98.6-.03 1.19-.11 1.76-.28 1.44-.44 2.03-1.27 2-2.81-.03-1.49-.46-2.86-.89-3.94zM679.9-72.14c.02-.08-.03-.11-.07-.13-1.26-.74-2.56-1.39-3.88-2.01-.25-.12-.3.05-.36.22-.29.81-.59 1.62-.87 2.43-.19.57-.35 1.14-.55 1.78 1.94-.88 3.81-1.64 5.73-2.29zm8.68 21.41c-1.91.83-3.81 1.54-5.79 2.24 1.36.81 2.7 1.46 4.04 2.11.22.11.28-.02.33-.18.29-.8.59-1.59.87-2.39.21-.59.37-1.18.55-1.78zm4.65-11.08c-.19 2-.44 3.92-.8 5.82-.01.07-.06.17.01.22.11.07.2-.02.28-.07 1.17-.7 2.31-1.43 3.43-2.22.16-.11.18-.19.06-.35-.92-1.14-1.89-2.27-2.98-3.4zm-23.68 2.94c.19-2.12.48-4.12.86-6.18-1.32.76-2.51 1.55-3.7 2.35-.23.15-.3.27-.08.52.64.72 1.25 1.48 1.88 2.21.32.35.65.69 1.04 1.1zm2.33 5.75c-.02.09-.04.14-.04.19.02 1.43.09 2.86.22 4.28.02.23.12.2.29.17 1.32-.18 2.63-.47 3.93-.75.11-.02.27-.02.29-.15.02-.13-.14-.18-.23-.25-.88-.66-1.77-1.31-2.63-1.98-.62-.48-1.2-.99-1.83-1.51zm19.06-14.39c-.01-1.57-.09-3.05-.22-4.52-.03-.3-.22-.18-.34-.16-.55.08-1.1.18-1.64.29-.87.17-1.74.36-2.71.56a62.75 62.75 0 014.91 3.83z"/><path class="st28" d="M683.32-55.54c-2.69 1.08-5.66-.18-6.74-2.86-1.07-2.66.21-5.69 2.86-6.76 2.64-1.06 5.69.23 6.75 2.88a5.144 5.144 0 01-2.87 6.74z"/></g></g><g class="st18"><path class="st29" d="M625.46 117.16c-.09-.32-.35-.13-.5-.13-2.46.06-4.92.15-7.38.23-7.55.25-15.09.49-22.64.75-.41.01-.55-.12-.69-.47-2.35-5.71-4.71-11.42-7.06-17.12-2.5-6.05-5-12.11-7.5-18.16-2.43-5.88-4.87-11.76-7.3-17.64-2.31-5.6-4.61-11.2-6.93-16.79-.14-.34-.08-.46.25-.53.12-.02.23-.07.34-.11 23.21-7.25 46.42-14.51 69.63-21.76.13-.04.26-.07.39-.12.24-.1.36-.06.42.23.4 1.87.81 3.74 1.22 5.62.7 3.21 1.39 6.42 2.09 9.63l2.1 9.68c.69 3.19 1.39 6.38 2.08 9.58l2.34 10.78 2.07 9.53c.78 3.61 1.57 7.22 2.35 10.83.59 2.72 1.17 5.45 1.79 8.17.09.39-.04.55-.32.73-5.72 3.68-11.43 7.37-17.14 11.06-2.7 1.74-5.4 3.48-8.09 5.23-.18.12-.41.18-.51.41 0 0 .02.02.03.02.02.01.03.01.05.02-.37.1-.73.21-1.09.33zm-7.13-24.9c-.12.02-.23.05-.35.06-3.33.14-6.66.27-9.98.43-.36.02-.5-.09-.63-.41-.82-2.03-1.67-4.05-2.49-6.08-.13-.33-.27-.38-.6-.28-2.67.85-5.35 1.69-8.04 2.51-.43.13-.42.3-.28.65 1.76 4.23 3.51 8.47 5.26 12.71.11.27.25.38.57.37 6.49-.21 12.98-.41 19.46-.61.89 2.86 1.79 5.72 2.68 8.57.19.6.24.62.76.28l14.25-9.24c2.05-1.33 4.1-2.67 6.16-3.99.33-.21.48-.45.38-.85-.1-.38-.17-.77-.25-1.15-.36-1.67-.71-3.34-1.07-5.01-.36-1.69-.74-3.37-1.11-5.05l-1.11-5.16c-.28-1.3-.58-2.6-.86-3.9-.37-1.7-.73-3.41-1.1-5.11-.28-1.28-.57-2.57-.84-3.85-.37-1.7-.73-3.41-1.1-5.11-.36-1.65-.73-3.3-1.08-4.95-.37-1.7-.72-3.41-1.09-5.11-.37-1.68-.75-3.37-1.11-5.05-.39-1.77-.77-3.54-1.15-5.31-.28-1.29-.54-2.57-.82-3.86-.28-1.3-.56-2.6-.86-3.9-.15-.61-.22-.63-.83-.44-9.25 2.89-18.49 5.78-27.73 8.67-.63.2-.64.22-.43.88.85 2.73 1.71 5.46 2.56 8.18-.23.08-.45.16-.68.24-6.96 2.18-13.92 4.35-20.87 6.52-.79.25-.79.25-.48.98.1.24.18.48.28.72 1.67 4.03 3.35 8.05 5.02 12.08 1.67 4.03 3.34 8.06 4.99 12.09.16.38.31.49.75.35 6.25-1.97 12.51-3.92 18.76-5.88.21-.07.43-.11.64-.17 1.47 4.73 2.94 9.46 4.42 14.18z"/><path class="st30" d="M605.48 51.15c-.85-2.73-1.71-5.45-2.56-8.18-.21-.66-.19-.69.43-.88l27.73-8.67c.6-.19.68-.17.83.44.31 1.3.58 2.6.86 3.9.28 1.28.54 2.57.82 3.86.38 1.77.76 3.54 1.15 5.31.37 1.68.75 3.37 1.11 5.05.37 1.7.73 3.41 1.09 5.11.36 1.65.73 3.3 1.08 4.95.37 1.7.73 3.41 1.1 5.11.28 1.28.57 2.57.84 3.85.37 1.7.73 3.41 1.1 5.11.28 1.3.57 2.6.86 3.9l1.11 5.16 1.11 5.05c.36 1.67.71 3.34 1.07 5.01.08.38.15.77.25 1.15.11.4-.04.63-.38.85-2.06 1.32-4.11 2.66-6.16 3.99l-14.25 9.24c-.52.34-.57.32-.76-.28-.89-2.86-1.79-5.72-2.68-8.57 0-.02 0-.04-.01-.06 2.91-1.88 5.83-3.75 8.74-5.63 2.5-1.61 4.99-3.23 7.48-4.84.2-.13.4-.21.33-.55-.59-2.67-1.17-5.34-1.75-8.02l-2.07-9.52c-.7-3.21-1.39-6.42-2.09-9.62-.14-.63-.16-.63-.8-.43-6.48 2.03-12.96 4.05-19.45 6.08-.18.06-.35.12-.53.19 0-.02 0-.04-.01-.06-.94-3.01-1.89-6.02-2.83-9.03-.01-.02-.01-.05-.01-.07.05-.01.1-.01.15-.03 6.98-2.18 13.95-4.36 20.93-6.53.29-.09.36-.2.29-.51-.59-2.71-1.16-5.42-1.73-8.13-.13-.63-.12-.63-.75-.44-7.06 2.2-14.11 4.41-21.17 6.62-.16.05-.32.12-.48.17l.01-.05z"/><path d="M608.26 60.03c0 .02.01.05.01.07-.12.02-.24.03-.35.06-3.93 1.23-7.86 2.46-11.8 3.67-.42.13-.38.32-.25.63 1.1 2.63 2.2 5.27 3.28 7.91.16.38.32.45.71.32 3.58-1.14 7.17-2.25 10.76-3.38.16-.05.32-.12.48-.18.01.02.01.04.01.06.92 2.95 1.85 5.9 2.77 8.85l.02.04c-.21.06-.43.1-.64.17-6.26 1.95-12.51 3.9-18.76 5.88-.44.14-.59.03-.75-.35-1.66-4.03-3.32-8.07-4.99-12.09-1.67-4.03-3.35-8.05-5.02-12.08-.1-.24-.18-.48-.28-.72-.31-.74-.31-.74.48-.98 6.96-2.17 13.92-4.35 20.87-6.52.23-.07.45-.16.68-.24l.02.04c.91 2.95 1.83 5.9 2.75 8.84zm12.98 41.51c0 .02.01.04.01.06-6.49.2-12.98.4-19.46.61-.32.01-.46-.1-.57-.37-1.75-4.24-3.5-8.47-5.26-12.71-.15-.35-.15-.52.28-.65 2.68-.82 5.36-1.66 8.04-2.51.33-.11.47-.05.6.28.82 2.03 1.67 4.05 2.49 6.08.13.32.27.43.63.41 3.33-.16 6.66-.29 9.98-.43.12 0 .23-.04.35-.06l.01.05c.96 3.08 1.93 6.16 2.9 9.24z" fill="#eaeae9"/><path class="st30" d="M618.33 92.26c-1.48-4.72-2.95-9.45-4.43-14.17l-.02-.04c.2-.05.4-.1.59-.16 3.26-1.02 6.53-2.03 9.79-3.07.47-.15.62-.05.7.41.14.79.34 1.57.51 2.35.61 2.84 1.22 5.68 1.85 8.52.07.33.02.51-.28.7-2.91 1.82-5.8 3.66-8.7 5.5l-.01-.04z"/><path class="st23" d="M618.33 92.3c2.9-1.84 5.79-3.68 8.7-5.5.3-.19.36-.37.28-.7-.63-2.84-1.23-5.68-1.85-8.52-.17-.78-.37-1.56-.51-2.35-.08-.46-.23-.56-.7-.41-3.26 1.04-6.52 2.05-9.79 3.07-.2.06-.39.11-.59.16-.92-2.95-1.85-5.9-2.77-8.85.18-.06.35-.13.53-.19 6.48-2.03 12.96-4.05 19.45-6.08.64-.2.66-.2.8.43.7 3.21 1.39 6.42 2.09 9.62l2.07 9.52c.58 2.67 1.16 5.35 1.75 8.02.07.33-.13.42-.33.55l-7.48 4.84c-2.91 1.88-5.83 3.75-8.74 5.63l-2.91-9.24zm-10.07-32.27c-.92-2.95-1.84-5.9-2.76-8.84.16-.06.32-.12.48-.17 7.06-2.21 14.11-4.41 21.17-6.62.62-.19.61-.19.75.44.57 2.71 1.14 5.42 1.73 8.13.07.31 0 .42-.29.51-6.98 2.17-13.95 4.35-20.93 6.53-.05.01-.1.02-.15.02z"/><path class="st29" d="M611.1 69.14c-.16.06-.31.13-.48.18-3.59 1.12-7.18 2.24-10.76 3.38-.4.13-.56.06-.71-.32-1.08-2.64-2.18-5.27-3.28-7.91-.13-.31-.17-.5.25-.63 3.94-1.21 7.87-2.45 11.8-3.67.11-.04.23-.04.35-.06.94 3.01 1.89 6.02 2.83 9.03z"/></g><path d="M659.3 102.66c-.5.51-.99.99-1.55 1.38.01-.14.02-.27.02-.35 0-.41-.43-.71-.72-.63-.98.26-1.76.95-2.62 1.45-.08-.23-.27-.43-.52-.44-2.58-.1-4.47 1.23-6.26 2.92a.44.44 0 00-.68-.02c-.15-.31-.53-.48-.76-.3a9.281 9.281 0 00-3.4 5.2c-.21-.13-.48-.11-.63.06-1.8 2.06-2.01 6.81-1.12 10.26.03.8.19 1.61.54 2.42.28.66 1.24.91 1.29.06.18-3.27 2.25-4.89 5.1-4.14.87.23 2.6 1.21 3.04.13.96 0 1.81.12 2.66-.46.14-.1.23-.3.24-.52.67-.06 1.3-.2 1.94-.5.2-.09.29-.48.19-.73l-.15-.36c.99-.43 2.01-.75 2.99-1.18.29-.13.53-.57.24-.96-.46-.64-.6-.82.1-1.06.26-.09.46-.44.32-.8.02-.22.05-.45.07-.67.24-.25.1-.69-.11-.97-.59-.78-1.01-1.06-.24-1.79.33-.31.7-.57 1.07-.82.28-.19.27-.83-.11-1.02l-.12-.06a.867.867 0 00-.28-.51c-.06-.06-.12-.1-.19-.16.69-1.15.37-3.68.52-4.84.1-.6-.54-.92-.87-.59z" fill="#215812"/><path class="st33" d="M656.64 106.29c.33-.61.74-1.26 1.12-1.98-1.57.47-3.37-.02-4.15 1.95-2.33-3.24-4.02 3.31-7.05 2.46-.15-.36-.44-1.08-.87-1.32-.94 2.37-.84 5.82-3.16 6.76-.47 1.33-.57 2.78-.46 4.33 1.1-8.2 10.21-7.55 14.57-12.2z"/><path class="st33" d="M656.71 108.91c-4.77 3.14-12.92 3.15-13.21 10.77 1.83-2.62 7.03 1.12 8.65-1.38 1-1.66 3.75.14 5.04-1.64-.58.23-.72-.12-1.16-.37.14-1.31 1.3-.11 1.73-.7.28-.95.28-1.79.85-2.86.14-.48-1.02-1.68-1.03-2.51.14-.48 1.15-.47 1.73-.7-.67-1.17-.58-2.1-.32-3.02-.61 1.1-1.34 2.03-2.28 2.41z"/><path class="st34" d="M453.69 125.29c.35-2.16 7.21-2.92 7.81-2.27.6.64 1.44 4.23.79 4.83-.65.6-7.93 3.04-8.41 1.63-.48-1.41-.43-2.66-.19-4.19z"/><path class="st35" d="M461.57 124.43c-.15-.43-.31-.78-.45-.93-.55-.59-6.83.11-7.15 2.08-.04.26-.07.5-.1.75 2.61-1.31 5.07-1.61 7.7-1.9z"/><path class="st34" d="M366.43 113.49c.35-2.16 7.21-2.92 7.81-2.27.6.64 1.44 4.23.79 4.83-.65.6-7.93 3.04-8.41 1.63-.48-1.42-.43-2.67-.19-4.19z"/><path class="st35" d="M374.3 112.63c-.15-.43-.31-.78-.45-.93-.55-.59-6.83.11-7.15 2.08-.04.26-.07.5-.1.75 2.61-1.31 5.07-1.61 7.7-1.9z"/><path class="st34" d="M592.28 112.74c.04-2.19 6.73-3.89 7.42-3.34.69.55 2.01 3.98 1.46 4.67-.56.68-7.43 4.11-8.1 2.78-.68-1.32-.81-2.57-.78-4.11z"/><path class="st35" d="M599.96 110.8c-.2-.4-.41-.73-.57-.86-.63-.51-6.75 1.05-6.79 3.05-.01.26 0 .51.01.75 2.39-1.65 4.79-2.3 7.35-2.94z"/><path class="st17" d="M745.48 1.13c-.02-.2-.06-.36-.11-.43-.19-.29-3.17-.32-3.54.54-.05.11-.09.22-.13.32 1.36-.44 2.53-.45 3.78-.43zm-9.1 3.8a.768.768 0 00-.07-.3c-.13-.2-2.11-.22-2.35.37-.03.08-.06.15-.08.22.89-.3 1.67-.3 2.5-.29z"/><path class="st15" d="M745.52 6.59c-.19-.21-.44-.35-.69-.49-.45-.25-.93-.23-1.44-.06-.15.05-.32.11-.34.28-.02.16.14.23.27.28.35.14.72.19 1.1.25.34.05.68.08 1 .18.09.03.22.08.3-.01.07-.08-.04-.16-.07-.24-.04-.07-.07-.14-.13-.19z"/><path class="st17" d="M744.27 6.21c-.01-.05-.01-.1-.03-.12-.05-.08-.85-.09-.95.15l-.03.09c.36-.12.68-.12 1.01-.12z"/><path class="st34" d="M747.23 89.6c-.87-.98 1.36-4.44 1.89-4.47.52-.04 2.5.93 2.53 1.45.03.53-1.58 4.82-2.42 4.51-.82-.31-1.38-.8-2-1.49z"/><path class="st35" d="M749.8 85.64c-.25-.09-.47-.15-.6-.14-.48.03-2.53 3.2-1.73 4.09.1.12.21.22.31.33.38-1.7 1.16-2.96 2.02-4.28z"/><path class="st34" d="M697.76 104.28c-.43-1.76 3.84-3.75 4.43-3.37.59.38 2.22 3.01 1.98 3.62-.24.6-4.27 3.99-5.02 2.98-.74-1-1.09-1.99-1.39-3.23z"/><path class="st35" d="M702.66 102.01c-.23-.31-.43-.54-.58-.64-.54-.35-4.44 1.47-4.05 3.08.05.21.11.41.16.61 1.31-1.56 2.83-2.3 4.47-3.05z"/><path class="st36" d="M495.77 115.08c-.42-.04-.87-.05-1.34-.06-1.23-.22-2.48-.26-3.5-.11-.09.02-.19.04-.28.05-1.47.07-2.94.33-4.33.77-4.1.56-8.67 1.98-10.45 4.47-.41.4-.76.82-1.01 1.26-1.16 1.15-1.9 2.48-1.78 3.74.01.98.55 1.92 1.71 2.45.32.21.68.4 1.1.59.33.14.68.25 1.03.35 3.3 1.69 8.99.77 12.71-.65.93-.2 1.82-.44 2.63-.71.66-.22 1.29-.5 1.88-.82.95-.35 1.86-.72 2.68-1.08 5.77-2.55 6.72-9.55-1.05-10.25zm-1.86 7.46c-.59.25-1.25.51-1.94.75-.43.22-.88.41-1.36.56-.58.19-1.22.37-1.89.51-2.69.99-6.75 1.7-9.06.65a4.27 4.27 0 01-.72-.21c-.29-.11-.54-.23-.76-.36-.82-.33-1.17-.93-1.15-1.56-.05-.82.52-1.7 1.37-2.47.19-.29.45-.57.75-.84 1.34-1.65 4.63-2.66 7.56-3.1 1-.3 2.05-.5 3.1-.58.07-.01.14-.03.2-.04.73-.12 1.61-.11 2.49.01.33-.01.65 0 .95.01 5.5.33 4.63 4.91.46 6.67z"/><path class="st37" d="M481.69 121.64c4.05-1.62 11.1-3.63 15.14-1.5 1.11-1.91.3-4.04-3.39-4.25-.3-.02-.62-.02-.95-.01-.88-.12-1.76-.12-2.49-.01-.07.01-.13.03-.2.04-1.05.07-2.1.27-3.1.58-2.93.44-6.22 1.45-7.56 3.1-.3.27-.56.55-.75.84-.85.77-1.42 1.65-1.37 2.47-.02.64.34 1.24 1.15 1.56.09.05.18.1.28.15.47-1.52 2.13-2.67 3.24-2.97z"/><path class="st38" d="M477.27 123.76c.19.29.49.53.91.7.09.05.18.1.28.15.47-1.52 2.12-2.67 3.23-2.97 4.05-1.62 11.1-3.63 15.14-1.5.28-.48.44-.97.46-1.44-7.56-2.62-15.29.03-20.02 5.06z"/><path class="st37" d="M497.72 116.57c-.15-.08 1.73 1.12.58 3.36-1.21 2.1-4.71 3.86-8.59 5.21-3.87 1.47-8.06 1.79-10.63.81-2.66-.91-3.09-2.5-3.05-2.44.05-.07.54 1.44 3.14 2.29 2.5.91 6.59.58 10.42-.87 3.85-1.34 7.31-3.06 8.51-5.06 1.16-2.11-.59-3.33-.38-3.3zm-14.06-.06c.06.11-2.03.57-4.12 1.79-2.15 1.21-2.96 2.82-2.99 2.8-.14 0 .59-1.75 2.81-2.99 2.15-1.25 4.31-1.61 4.3-1.6z"/><path class="st37" d="M485.15 120.59c.61.23 1.35.31 2.15.16 1.1-.2 1.92-.75 2.24-1.39.02-.03.05-.05.08-.08 1.01-1.23-1.05-2.41-2.75-2.05-.19.04-.36.09-.52.16-.5.07-.97.2-1.36.37-.53.24-.86.55-1.03.89-.16.08-.28.2-.26.35.02.19.08.37.17.53.14.48.59.89 1.28 1.06z"/><path class="st39" d="M486.09 120.17c.36.14.81.18 1.28.1.66-.12 1.15-.45 1.34-.83.01-.02.03-.03.05-.05.6-.73-.62-1.43-1.64-1.22-.11.02-.22.06-.31.1-.3.04-.58.12-.81.22-.31.14-.51.33-.62.53-.1.05-.17.12-.16.21.01.11.05.22.1.32.1.27.36.51.77.62z"/><path class="st37" d="M479.84 122.09c-.43.07-.8.21-1.11.4-.43.08-.84.23-1.12.44-.46.34-.46.72-.21 1.03-.1.25.03.51.37.6.04.08.08.15.19.22.14.09.28.17.43.24.31.15.66.27 1.03.35.79.18 1.72.1 2.5-.24 1.18-.52 1.41-1.46.84-2.16-.56-.67-1.69-1.07-2.92-.88z"/><path class="st39" d="M480.49 122.78c-.24.04-.45.12-.62.22-.24.05-.47.13-.63.24-.26.19-.26.4-.12.57-.06.14.02.28.2.34.02.04.04.08.1.12.08.05.16.09.24.14.17.09.37.15.57.2.44.1.96.06 1.39-.13.66-.29.79-.81.47-1.2-.29-.39-.91-.61-1.6-.5z"/><path class="st37" d="M497.54 118.68c-.09-.22-.48-.41-.84-.34-.39.07-.78.19-1.15.33-.23.06-.46.15-.66.25-.08.03-.16.07-.23.12-.05.03-.1.06-.14.08-.02.01-.03.03-.05.05-.31.11-.6.3-.74.49-.08.12-.13.26-.11.38 0 .07.02.13.05.19.03.07.03.1.03.07 0 .01.01.02.01.04.01.2.16.35.38.42.11.07.24.12.4.17.03.01.06.01.09.01l.01.01c.63.47 1.74.07 2.27-.41.59-.54.92-1.26.68-1.86z"/><path class="st39" d="M496.72 119.07c-.05-.14-.3-.26-.53-.22-.25.05-.49.12-.72.21-.15.04-.29.09-.42.16-.05.02-.1.04-.14.08-.03.02-.06.04-.09.05l-.03.03c-.2.07-.38.19-.47.31-.05.07-.08.16-.07.24 0 .04.01.08.03.12.02.05.02.06.02.04 0 .01.01.01.01.02.01.13.1.22.24.27.07.04.15.08.25.11.02.01.04.01.06.01 0 0 .01 0 .01.01.4.29 1.1.04 1.43-.26.36-.35.57-.8.42-1.18z"/><path class="st37" d="M490.96 123.57c.52-1-.43-2.28-2.02-2.22-2.01.07-4.43 2.94-2.86 3.68.05.07.14.12.27.15 1.51-.46 3.04-.8 4.44-1.34.05-.09.12-.18.17-.27z"/><path class="st39" d="M489.81 123.2c.29-.57-.24-1.29-1.15-1.26-1.14.04-2.51 1.67-1.63 2.09.03.04.08.07.15.08.86-.26 1.73-.45 2.52-.76.04-.04.08-.1.11-.15z"/><path class="st36" d="M549.78 118.84c-.29-.14-.6-.28-.92-.41-.81-.5-1.67-.87-2.41-1.03-.07-.01-.14-.02-.21-.04-1.04-.35-2.12-.55-3.18-.61-2.97-.7-6.46-.88-8.24.51-.37.19-.7.41-.98.67-1.06.55-1.86 1.34-2.05 2.31-.21.74-.04 1.58.66 2.3.17.24.38.49.63.74.2.2.42.38.64.54 1.93 2.17 6.08 3.02 8.97 2.97.69.1 1.36.17 1.98.18.51.01 1-.02 1.48-.1.74 0 1.45-.03 2.1-.08 4.58-.33 6.77-5.32 1.53-7.95zm-2.93 5.08c-.47.03-.98.04-1.51.04-.34.05-.7.07-1.07.05-.45-.01-.93-.06-1.42-.13-2.08.01-5.06-.57-6.44-1.97-.16-.11-.32-.22-.46-.35-.18-.16-.33-.32-.45-.48-.5-.47-.61-1.01-.46-1.49.14-.62.73-1.13 1.49-1.48.2-.17.44-.31.71-.42 1.29-.88 3.8-.74 5.93-.27.76.04 1.54.18 2.28.41.05.01.1.02.15.02.53.11 1.15.35 1.73.68.23.09.45.17.66.27 3.75 1.74 2.14 4.93-1.14 5.12z"/><path class="st37" d="M538.56 119.92c3.16-.11 8.5.3 10.85 2.99 1.19-1.13 1.09-2.94-1.43-4.11-.2-.09-.43-.18-.66-.27-.58-.33-1.2-.57-1.73-.68-.05-.01-.1-.01-.15-.02-.74-.23-1.52-.37-2.28-.41-2.13-.47-4.64-.61-5.93.27-.27.12-.51.26-.71.42-.76.35-1.35.85-1.49 1.48-.15.47-.04 1.02.46 1.49.05.06.11.12.16.19.67-1.02 2.07-1.43 2.91-1.35z"/><path class="st38" d="M535.03 120.3c.07.27.22.53.48.77.05.06.11.12.16.19.66-1.01 2.05-1.42 2.89-1.34 3.16-.11 8.5.3 10.85 2.99.3-.28.51-.61.63-.95-4.68-4.02-10.63-4.13-15.01-1.66z"/><path class="st37" d="M550.8 120.48c-.09-.1.96 1.31-.33 2.67-1.3 1.25-4.12 1.61-7.1 1.57-3.01.05-5.99-.86-7.56-2.29-1.65-1.41-1.6-2.72-1.59-2.66.05-.04.06 1.23 1.68 2.57 1.54 1.36 4.45 2.23 7.43 2.18 2.97.05 5.75-.31 7.02-1.48 1.27-1.25.32-2.64.45-2.56zm-9.75-3.87c.01.1-1.53-.13-3.25.22-1.76.32-2.67 1.31-2.69 1.28-.1-.04.79-1.15 2.61-1.48 1.76-.34 3.34-.02 3.33-.02z"/><path class="st37" d="M541.19 120.07c.37.34.87.6 1.46.71.81.15 1.5-.04 1.86-.43.02-.01.05-.03.07-.04.97-.65-.2-2.09-1.47-2.28a1.76 1.76 0 00-.39-.02c-.36-.08-.72-.11-1.02-.09-.42.03-.72.18-.91.38-.13.02-.24.07-.26.19-.02.15-.02.3 0 .45 0 .39.22.81.66 1.13z"/><path class="st39" d="M541.94 120.01c.22.2.52.36.87.42.48.09.89-.02 1.11-.26.01-.01.03-.02.04-.02.58-.38-.12-1.24-.87-1.36-.08-.01-.16-.02-.23-.01-.22-.05-.43-.07-.61-.05-.25.02-.43.11-.54.23-.08.01-.14.04-.16.12-.01.09-.01.18 0 .27 0 .22.13.47.39.66z"/><path class="st37" d="M537.18 119.75c-.31-.07-.6-.06-.86 0-.31-.06-.63-.06-.88.02-.4.13-.48.41-.37.71-.13.16-.09.39.12.55.01.07.02.13.08.21.08.1.16.2.25.3.18.2.4.38.64.54.51.35 1.17.54 1.79.5.93-.07 1.3-.71 1.05-1.39-.22-.64-.92-1.24-1.82-1.44z"/><path class="st39" d="M537.48 120.44c-.17-.04-.34-.03-.48 0a1.14 1.14 0 00-.49.01c-.22.07-.27.23-.21.4-.07.09-.05.22.07.31.01.04.01.07.05.12.04.06.09.11.14.17.1.11.22.21.35.3.28.19.65.3 1 .28.52-.04.72-.39.59-.77-.13-.37-.52-.71-1.02-.82z"/><path class="st37" d="M550.22 122.01c-.01-.19-.24-.44-.51-.48-.29-.05-.58-.07-.87-.07-.18-.02-.35-.01-.51 0-.07 0-.13.01-.18.03-.04.01-.08.01-.12.02-.02 0-.03.01-.05.02-.24 0-.48.06-.62.17a.4.4 0 00-.16.26.43.43 0 000 .16c.01.06 0 .08 0 .06v.03c-.04.16.04.31.17.42.06.08.14.16.24.23l.06.03s0 .01.01.01c.34.52 1.2.53 1.66.31.53-.24.91-.69.88-1.2z"/><path class="st39" d="M549.57 122.08c-.01-.12-.15-.28-.32-.31-.18-.03-.37-.04-.55-.04a1.71 1.71 0 00-.32 0c-.04 0-.08.01-.12.02-.03 0-.05.01-.07.01-.01 0-.02.01-.03.01-.15 0-.3.04-.39.11-.05.04-.09.1-.1.16a.17.17 0 000 .1v.06c-.02.1.02.19.11.27.04.05.09.1.15.15.01.01.02.01.04.02v.01c.21.33.75.33 1.05.2.32-.16.57-.44.55-.77z"/><path class="st37" d="M544.58 123.88c.58-.61.2-1.82-.92-2.21-1.42-.49-3.72 1-2.79 1.98.02.06.07.13.15.19 1.15.07 2.29.23 3.38.2.06-.05.13-.1.18-.16z"/><path class="st39" d="M543.86 123.29c.33-.35.11-1.03-.52-1.25-.8-.28-2.11.57-1.58 1.12.01.04.04.07.09.1.65.04 1.3.13 1.91.11.03-.01.07-.04.1-.08z"/></svg>